{
  "source": "C:\\Users\\Peter\\Desktop\\stuff\\MIUN\\quantitative_research\\video_compression\\videos\\BVI-HD\\BVI-HD_CDVL_videos\\ORIG\\MartialArts_1920x1080_60fps.mp4",
  "output": "C:\\Users\\Peter\\Desktop\\stuff\\MIUN\\quantitative_research\\video_compression\\compressed_videos\\BVI-HD\\hevc\\2.5\\MartialArts_1920x1080_60fps_hevc.mp4",
  "codec": "hevc",
  "ok": "Input #0, mov,mp4,m4a,3gp,3g2,mj2, from 'C:\\Users\\Peter\\Desktop\\stuff\\MIUN\\quantitative_research\\video_compression\\videos\\BVI-HD\\BVI-HD_CDVL_videos\\ORIG\\MartialArts_1920x1080_60fps.mp4':\n  Metadata:\n    major_brand     : isom\n    minor_version   : 512\n    compatible_brands: isomiso2avc1mp41\n    encoder         : Lavf54.28.101\n  Duration: 00:00:05.00, start: 0.000000, bitrate: 120609 kb/s\n  Stream #0:0[0x1](und): Video: h264 (High 4:4:4 Predictive) (avc1 / 0x31637661), yuv420p(progressive), 1920x1080, 120605 kb/s, 60 fps, 60 tbr, 60 tbn (default)\n    Metadata:\n      handler_name    : VideoHandler\n      vendor_id       : [0][0][0][0]\n[out#0/mp4 @ 000001ead165abc0] Codec AVOption b:a (set bitrate (in bits/s)) has not been used for any stream. The most likely reason is either wrong type (e.g. a video option with no video streams) or that it is a private option of some decoder which was not actually used for any stream.\nStream mapping:\n  Stream #0:0 -> #0:0 (h264 (native) -> hevc (libx265))\nPress [q] to stop, [?] for help\n[libx265 @ 000001ead1c30940] Unknown option: \"aq-mode.\nx265 [info]: HEVC encoder version 4.1+190-8f11c33ac\nx265 [info]: build info [Windows][GCC 15.1.0][64 bit] 10bit\nx265 [info]: using cpu capabilities: MMX2 SSE2Fast LZCNT SSSE3 SSE4.2 AVX FMA3 BMI2 AVX2\nx265 [info]: Main 10 profile, Level-4.1 (Main tier)\nx265 [info]: Thread pool created using 12 threads\nx265 [info]: Slices                              : 1\nx265 [info]: frame threads / pool features       : 3 / wpp(17 rows)\nx265 [info]: Coding QT: max CU size, min CU size : 64 / 8\nx265 [info]: Residual QT: max TU size, max depth : 32 / 1 inter / 1 intra\nx265 [info]: ME / range / subpel / merge         : star / 57 / 3 / 3\nx265 [info]: Keyframe min / max / scenecut / bias  : 25 / 250 / 40 / 5.00 \nx265 [info]: Lookahead / bframes / badapt        : 25 / 4 / 2\nx265 [info]: b-pyramid / weightp / weightb       : 1 / 1 / 0\nx265 [info]: References / ref-limit  cu / depth  : 4 / on / on\nx265 [info]: AQ: mode / str / qg-size / cu-tree  : 2 / 1.0 / 32 / 1\nx265 [info]: Rate Control / qCompress            : ABR-2500 kbps / 0.60\nx265 [info]: VBV/HRD buffer / max-rate / init    : 2500 / 2500 / 0.750\nx265 [info]: tools: rect limit-modes rd=4 psy-rd=2.00 rdoq=2 psy-rdoq=1.00\nx265 [info]: tools: rskip mode=1 signhide tmvp strong-intra-smoothing lslices=4\nx265 [info]: tools: deblock sao dhdr10-info\nOutput #0, mp4, to 'C:\\Users\\Peter\\Desktop\\stuff\\MIUN\\quantitative_research\\video_compression\\compressed_videos\\BVI-HD\\hevc\\2.5\\MartialArts_1920x1080_60fps_hevc.mp4':\n  Metadata:\n    major_brand     : isom\n    minor_version   : 512\n    compatible_brands: isomiso2avc1mp41\n    encoder         : Lavf62.3.100\n  Stream #0:0(und): Video: hevc (hev1 / 0x31766568), yuv420p10le(tv, progressive), 1920x1080, q=2-31, 2500 kb/s, 60 fps, 15360 tbn (default)\n    Metadata:\n      encoder         : Lavc62.11.100 libx265\n      handler_name    : VideoHandler\n      vendor_id       : [0][0][0][0]\n    Side data:\n      cpb: bitrate max/min/avg: 2500000/0/2500000 buffer size: 2500000 vbv_delay: N/A\nframe=    0 fps=0.0 q=0.0 size=       0KiB time=N/A bitrate=N/A speed=N/A elapsed=0:00:00.53    \nframe=    0 fps=0.0 q=0.0 size=       0KiB time=N/A bitrate=N/A speed=N/A elapsed=0:00:01.16    \nframe=    0 fps=0.0 q=0.0 size=       0KiB time=N/A bitrate=N/A speed=N/A elapsed=0:00:01.69    \nframe=    0 fps=0.0 q=0.0 size=       0KiB time=N/A bitrate=N/A speed=N/A elapsed=0:00:02.22    \nframe=    0 fps=0.0 q=0.0 size=       0KiB time=N/A bitrate=N/A speed=N/A elapsed=0:00:02.76    \nframe=    0 fps=0.0 q=0.0 size=       0KiB time=N/A bitrate=N/A speed=N/A elapsed=0:00:03.29    \nframe=    0 fps=0.0 q=0.0 size=       0KiB time=N/A bitrate=N/A speed=N/A elapsed=0:00:03.83    \nframe=    0 fps=0.0 q=0.0 size=       0KiB time=N/A bitrate=N/A speed=N/A elapsed=0:00:04.35    \nframe=    2 fps=0.4 q=39.3 size=       0KiB time=00:00:00.00 bitrate=N/A speed=   0x elapsed=0:00:04.86    \nframe=    3 fps=0.6 q=38.1 size=       0KiB time=00:00:00.01 bitrate=  21.1kbits/s speed=0.0031x elapsed=0:00:05.38    \nframe=    3 fps=0.5 q=38.1 size=       0KiB time=00:00:00.01 bitrate=  21.1kbits/s speed=0.00282x elapsed=0:00:05.91    \nframe=    4 fps=0.6 q=38.1 size=       0KiB time=00:00:00.03 bitrate=  10.6kbits/s speed=0.00517x elapsed=0:00:06.45    \nframe=    5 fps=0.7 q=37.8 size=       0KiB time=00:00:00.05 bitrate=   7.0kbits/s speed=0.00719x elapsed=0:00:06.95    \nframe=    6 fps=0.8 q=38.2 size=       0KiB time=00:00:00.06 bitrate=   5.3kbits/s speed=0.00891x elapsed=0:00:07.48    \nframe=    6 fps=0.7 q=38.2 size=       0KiB time=00:00:00.06 bitrate=   5.3kbits/s speed=0.00832x elapsed=0:00:08.00    \nframe=    7 fps=0.8 q=32.7 size=       0KiB time=00:00:00.08 bitrate=   4.2kbits/s speed=0.00975x elapsed=0:00:08.54    \nframe=    9 fps=1.0 q=35.5 size=       0KiB time=00:00:00.11 bitrate=   3.0kbits/s speed=0.0129x elapsed=0:00:09.05    \nframe=    9 fps=0.9 q=35.5 size=       0KiB time=00:00:00.11 bitrate=   3.0kbits/s speed=0.0122x elapsed=0:00:09.58    \nframe=    9 fps=0.9 q=35.5 size=       0KiB time=00:00:00.11 bitrate=   3.0kbits/s speed=0.0115x elapsed=0:00:10.10    \nframe=    9 fps=0.8 q=35.5 size=       0KiB time=00:00:00.11 bitrate=   3.0kbits/s speed=0.011x elapsed=0:00:10.61    \nframe=   10 fps=0.9 q=32.2 size=       0KiB time=00:00:00.13 bitrate=   2.6kbits/s speed=0.012x elapsed=0:00:11.13    \nframe=   10 fps=0.9 q=32.2 size=       0KiB time=00:00:00.13 bitrate=   2.6kbits/s speed=0.0114x elapsed=0:00:11.65    \nframe=   10 fps=0.8 q=32.2 size=       0KiB time=00:00:00.13 bitrate=   2.6kbits/s speed=0.0109x elapsed=0:00:12.19    \nframe=   11 fps=0.9 q=32.0 size=       0KiB time=00:00:00.15 bitrate=   2.3kbits/s speed=0.0118x elapsed=0:00:12.71    \nframe=   11 fps=0.8 q=32.0 size=       0KiB time=00:00:00.15 bitrate=   2.3kbits/s speed=0.0113x elapsed=0:00:13.23    \nframe=   12 fps=0.9 q=27.2 size=       0KiB time=00:00:00.16 bitrate=   2.1kbits/s speed=0.0121x elapsed=0:00:13.76    \nframe=   13 fps=0.9 q=31.6 size=       0KiB time=00:00:00.18 bitrate=   1.9kbits/s speed=0.0128x elapsed=0:00:14.28    \nframe=   14 fps=0.9 q=30.9 size=       0KiB time=00:00:00.20 bitrate=   1.8kbits/s speed=0.0135x elapsed=0:00:14.83    \nframe=   14 fps=0.9 q=30.9 size=       0KiB time=00:00:00.20 bitrate=   1.8kbits/s speed=0.013x elapsed=0:00:15.34    \nframe=   15 fps=0.9 q=32.7 size=       0KiB time=00:00:00.21 bitrate=   1.6kbits/s speed=0.0137x elapsed=0:00:15.87    \nframe=   17 fps=1.0 q=26.4 size=       0KiB time=00:00:00.25 bitrate=   1.4kbits/s speed=0.0152x elapsed=0:00:16.42    \nframe=   17 fps=1.0 q=26.4 size=       0KiB time=00:00:00.25 bitrate=   1.4kbits/s speed=0.0147x elapsed=0:00:16.98    \nframe=   17 fps=1.0 q=26.4 size=       0KiB time=00:00:00.25 bitrate=   1.4kbits/s speed=0.0143x elapsed=0:00:17.51    \nframe=   17 fps=0.9 q=26.4 size=       0KiB time=00:00:00.25 bitrate=   1.4kbits/s speed=0.0138x elapsed=0:00:18.08    \nframe=   18 fps=1.0 q=33.0 size=       0KiB time=00:00:00.26 bitrate=   1.3kbits/s speed=0.0143x elapsed=0:00:18.59    \nframe=   19 fps=1.0 q=31.9 size=       0KiB time=00:00:00.28 bitrate=   1.2kbits/s speed=0.0148x elapsed=0:00:19.11    \nframe=   19 fps=1.0 q=31.9 size=       0KiB time=00:00:00.28 bitrate=   1.2kbits/s speed=0.0144x elapsed=0:00:19.64    \nframe=   19 fps=0.9 q=31.9 size=       0KiB time=00:00:00.28 bitrate=   1.2kbits/s speed=0.014x elapsed=0:00:20.16    \nframe=   19 fps=0.9 q=31.9 size=       0KiB time=00:00:00.28 bitrate=   1.2kbits/s speed=0.0137x elapsed=0:00:20.69    \nframe=   20 fps=0.9 q=30.6 size=       0KiB time=00:00:00.30 bitrate=   1.2kbits/s speed=0.0141x elapsed=0:00:21.23    \nframe=   20 fps=0.9 q=30.6 size=       0KiB time=00:00:00.30 bitrate=   1.2kbits/s speed=0.0138x elapsed=0:00:21.78    \nframe=   20 fps=0.9 q=30.6 size=       0KiB time=00:00:00.30 bitrate=   1.2kbits/s speed=0.0134x elapsed=0:00:22.36    \nframe=   20 fps=0.9 q=30.6 size=       0KiB time=00:00:00.30 bitrate=   1.2kbits/s speed=0.0131x elapsed=0:00:22.89    \nframe=   20 fps=0.9 q=30.6 size=       0KiB time=00:00:00.30 bitrate=   1.2kbits/s speed=0.0128x elapsed=0:00:23.40    \nframe=   21 fps=0.9 q=30.6 size=       0KiB time=00:00:00.31 bitrate=   1.1kbits/s speed=0.0132x elapsed=0:00:23.93    \nframe=   21 fps=0.9 q=30.6 size=       0KiB time=00:00:00.31 bitrate=   1.1kbits/s speed=0.0129x elapsed=0:00:24.46    \nframe=   22 fps=0.9 q=25.6 size=       0KiB time=00:00:00.33 bitrate=   1.1kbits/s speed=0.0133x elapsed=0:00:24.98    \nframe=   22 fps=0.9 q=25.6 size=       0KiB time=00:00:00.33 bitrate=   1.1kbits/s speed=0.0131x elapsed=0:00:25.50    \nframe=   23 fps=0.9 q=31.1 size=       0KiB time=00:00:00.35 bitrate=   1.0kbits/s speed=0.0134x elapsed=0:00:26.03    \nframe=   23 fps=0.9 q=31.1 size=       0KiB time=00:00:00.35 bitrate=   1.0kbits/s speed=0.0132x elapsed=0:00:26.57    \nframe=   24 fps=0.9 q=31.1 size=       0KiB time=00:00:00.36 bitrate=   1.0kbits/s speed=0.0135x elapsed=0:00:27.11    \nframe=   24 fps=0.9 q=31.1 size=       0KiB time=00:00:00.36 bitrate=   1.0kbits/s speed=0.0133x elapsed=0:00:27.65    \nframe=   24 fps=0.9 q=31.1 size=       0KiB time=00:00:00.36 bitrate=   1.0kbits/s speed=0.013x elapsed=0:00:28.22    \nframe=   24 fps=0.8 q=31.1 size=       0KiB time=00:00:00.36 bitrate=   1.0kbits/s speed=0.0127x elapsed=0:00:28.76    \nframe=   25 fps=0.9 q=29.8 size=       0KiB time=00:00:00.38 bitrate=   0.9kbits/s speed=0.0131x elapsed=0:00:29.30    \nframe=   25 fps=0.8 q=29.8 size=       0KiB time=00:00:00.38 bitrate=   0.9kbits/s speed=0.0128x elapsed=0:00:29.83    \nframe=   26 fps=0.9 q=29.9 size=       0KiB time=00:00:00.40 bitrate=   0.9kbits/s speed=0.0132x elapsed=0:00:30.37    \nframe=   26 fps=0.8 q=29.9 size=       0KiB time=00:00:00.40 bitrate=   0.9kbits/s speed=0.013x elapsed=0:00:30.88    \nframe=   27 fps=0.9 q=24.7 size=       0KiB time=00:00:00.41 bitrate=   0.8kbits/s speed=0.0133x elapsed=0:00:31.40    \nframe=   28 fps=0.9 q=29.8 size=       0KiB time=00:00:00.43 bitrate=   0.8kbits/s speed=0.0136x elapsed=0:00:31.97    \nframe=   28 fps=0.9 q=29.8 size=       0KiB time=00:00:00.43 bitrate=   0.8kbits/s speed=0.0133x elapsed=0:00:32.49    \nframe=   28 fps=0.8 q=29.8 size=       0KiB time=00:00:00.43 bitrate=   0.8kbits/s speed=0.0131x elapsed=0:00:33.01    \nframe=   29 fps=0.9 q=30.0 size=       0KiB time=00:00:00.45 bitrate=   0.8kbits/s speed=0.0134x elapsed=0:00:33.52    \nframe=   29 fps=0.9 q=30.0 size=       0KiB time=00:00:00.45 bitrate=   0.8kbits/s speed=0.0132x elapsed=0:00:34.05    \nframe=   30 fps=0.9 q=30.4 size=       0KiB time=00:00:00.46 bitrate=   0.8kbits/s speed=0.0135x elapsed=0:00:34.60    \nframe=   30 fps=0.9 q=30.4 size=       0KiB time=00:00:00.46 bitrate=   0.8kbits/s speed=0.0133x elapsed=0:00:35.11    \nframe=   30 fps=0.8 q=30.4 size=       0KiB time=00:00:00.46 bitrate=   0.8kbits/s speed=0.0131x elapsed=0:00:35.65    \nframe=   31 fps=0.9 q=29.4 size=       0KiB time=00:00:00.48 bitrate=   0.7kbits/s speed=0.0134x elapsed=0:00:36.19    \nframe=   31 fps=0.8 q=29.4 size=       0KiB time=00:00:00.48 bitrate=   0.7kbits/s speed=0.0132x elapsed=0:00:36.71    \nframe=   31 fps=0.8 q=29.4 size=       0KiB time=00:00:00.48 bitrate=   0.7kbits/s speed=0.013x elapsed=0:00:37.24    \nframe=   32 fps=0.8 q=24.7 size=       0KiB time=00:00:00.50 bitrate=   0.7kbits/s speed=0.0132x elapsed=0:00:37.76    \nframe=   32 fps=0.8 q=24.7 size=       0KiB time=00:00:00.50 bitrate=   0.7kbits/s speed=0.0131x elapsed=0:00:38.30    \nframe=   32 fps=0.8 q=24.7 size=       0KiB time=00:00:00.50 bitrate=   0.7kbits/s speed=0.0129x elapsed=0:00:38.83    \nframe=   32 fps=0.8 q=24.7 size=       0KiB time=00:00:00.50 bitrate=   0.7kbits/s speed=0.0127x elapsed=0:00:39.37    \nframe=   32 fps=0.8 q=24.7 size=       0KiB time=00:00:00.50 bitrate=   0.7kbits/s speed=0.0125x elapsed=0:00:39.90    \nframe=   33 fps=0.8 q=27.8 size=       0KiB time=00:00:00.51 bitrate=   0.7kbits/s speed=0.0128x elapsed=0:00:40.41    \nframe=   33 fps=0.8 q=27.8 size=       0KiB time=00:00:00.51 bitrate=   0.7kbits/s speed=0.0126x elapsed=0:00:40.93    \nframe=   33 fps=0.8 q=27.8 size=       0KiB time=00:00:00.51 bitrate=   0.7kbits/s speed=0.0125x elapsed=0:00:41.47    \nframe=   33 fps=0.8 q=27.8 size=       0KiB time=00:00:00.51 bitrate=   0.7kbits/s speed=0.0123x elapsed=0:00:41.98    \nframe=   34 fps=0.8 q=30.5 size=       0KiB time=00:00:00.53 bitrate=   0.7kbits/s speed=0.0125x elapsed=0:00:42.51    \nframe=   35 fps=0.8 q=29.9 size=       0KiB time=00:00:00.55 bitrate=   0.6kbits/s speed=0.0128x elapsed=0:00:43.07    \nframe=   36 fps=0.8 q=24.9 size=       0KiB time=00:00:00.56 bitrate=   0.6kbits/s speed=0.013x elapsed=0:00:43.61    \nframe=   36 fps=0.8 q=24.9 size=       0KiB time=00:00:00.56 bitrate=   0.6kbits/s speed=0.0128x elapsed=0:00:44.13    \nframe=   36 fps=0.8 q=24.9 size=       0KiB time=00:00:00.56 bitrate=   0.6kbits/s speed=0.0127x elapsed=0:00:44.68    \nframe=   36 fps=0.8 q=24.9 size=       0KiB time=00:00:00.56 bitrate=   0.6kbits/s speed=0.0125x elapsed=0:00:45.21    \nframe=   36 fps=0.8 q=24.9 size=       0KiB time=00:00:00.56 bitrate=   0.6kbits/s speed=0.0124x elapsed=0:00:45.81    \nframe=   36 fps=0.8 q=24.9 size=       0KiB time=00:00:00.56 bitrate=   0.6kbits/s speed=0.0122x elapsed=0:00:46.37    \nframe=   36 fps=0.8 q=24.9 size=       0KiB time=00:00:00.56 bitrate=   0.6kbits/s speed=0.0121x elapsed=0:00:46.94    \nframe=   36 fps=0.8 q=24.9 size=       0KiB time=00:00:00.56 bitrate=   0.6kbits/s speed=0.0119x elapsed=0:00:47.50    \nframe=   37 fps=0.8 q=27.6 size=       0KiB time=00:00:00.58 bitrate=   0.6kbits/s speed=0.0121x elapsed=0:00:48.09    \nframe=   37 fps=0.8 q=27.6 size=       0KiB time=00:00:00.58 bitrate=   0.6kbits/s speed=0.012x elapsed=0:00:48.71    \nframe=   37 fps=0.8 q=27.6 size=       0KiB time=00:00:00.58 bitrate=   0.6kbits/s speed=0.0118x elapsed=0:00:49.25    \nframe=   37 fps=0.7 q=27.6 size=       0KiB time=00:00:00.58 bitrate=   0.6kbits/s speed=0.0117x elapsed=0:00:49.84    \nframe=   38 fps=0.8 q=30.3 size=       0KiB time=00:00:00.60 bitrate=   0.6kbits/s speed=0.0119x elapsed=0:00:50.38    \nframe=   38 fps=0.7 q=30.3 size=       0KiB time=00:00:00.60 bitrate=   0.6kbits/s speed=0.0118x elapsed=0:00:50.89    \nframe=   40 fps=0.8 q=29.8 size=       0KiB time=00:00:00.63 bitrate=   0.6kbits/s speed=0.0123x elapsed=0:00:51.42    \nframe=   40 fps=0.8 q=29.8 size=       0KiB time=00:00:00.63 bitrate=   0.6kbits/s speed=0.0122x elapsed=0:00:51.96    \nframe=   41 fps=0.8 q=24.3 size=       0KiB time=00:00:00.65 bitrate=   0.5kbits/s speed=0.0124x elapsed=0:00:52.47    \nframe=   41 fps=0.8 q=24.3 size=       0KiB time=00:00:00.65 bitrate=   0.5kbits/s speed=0.0123x elapsed=0:00:53.01    \nframe=   42 fps=0.8 q=28.3 size=       0KiB time=00:00:00.66 bitrate=   0.5kbits/s speed=0.0125x elapsed=0:00:53.53    \nframe=   42 fps=0.8 q=28.3 size=       0KiB time=00:00:00.66 bitrate=   0.5kbits/s speed=0.0123x elapsed=0:00:54.05    \nframe=   43 fps=0.8 q=30.2 size=       0KiB time=00:00:00.68 bitrate=   0.5kbits/s speed=0.0125x elapsed=0:00:54.57    \nframe=   43 fps=0.8 q=30.2 size=       0KiB time=00:00:00.68 bitrate=   0.5kbits/s speed=0.0124x elapsed=0:00:55.08    \nframe=   43 fps=0.8 q=30.2 size=       0KiB time=00:00:00.68 bitrate=   0.5kbits/s speed=0.0123x elapsed=0:00:55.60    \nframe=   44 fps=0.8 q=29.9 size=       0KiB time=00:00:00.70 bitrate=   0.5kbits/s speed=0.0125x elapsed=0:00:56.13    \nframe=   45 fps=0.8 q=24.7 size=       0KiB time=00:00:00.71 bitrate=   0.5kbits/s speed=0.0126x elapsed=0:00:56.65    \nframe=   45 fps=0.8 q=24.7 size=       0KiB time=00:00:00.71 bitrate=   0.5kbits/s speed=0.0125x elapsed=0:00:57.16    \nframe=   45 fps=0.8 q=24.7 size=       0KiB time=00:00:00.71 bitrate=   0.5kbits/s speed=0.0124x elapsed=0:00:57.67    \nframe=   46 fps=0.8 q=24.7 size=       0KiB time=00:00:00.73 bitrate=   0.5kbits/s speed=0.0126x elapsed=0:00:58.23    \nframe=   46 fps=0.8 q=24.7 size=       0KiB time=00:00:00.73 bitrate=   0.5kbits/s speed=0.0125x elapsed=0:00:58.75    \nframe=   46 fps=0.8 q=24.7 size=       0KiB time=00:00:00.73 bitrate=   0.5kbits/s speed=0.0124x elapsed=0:00:59.27    \nframe=   47 fps=0.8 q=30.1 size=       0KiB time=00:00:00.75 bitrate=   0.5kbits/s speed=0.0125x elapsed=0:00:59.79    \nframe=   48 fps=0.8 q=24.4 size=       0KiB time=00:00:00.76 bitrate=   0.5kbits/s speed=0.0127x elapsed=0:01:00.31    \nframe=   48 fps=0.8 q=24.4 size=       0KiB time=00:00:00.76 bitrate=   0.5kbits/s speed=0.0126x elapsed=0:01:00.84    \nframe=   48 fps=0.8 q=24.4 size=       0KiB time=00:00:00.76 bitrate=   0.5kbits/s speed=0.0125x elapsed=0:01:01.37    \nframe=   49 fps=0.8 q=28.9 size=       0KiB time=00:00:00.78 bitrate=   0.4kbits/s speed=0.0127x elapsed=0:01:01.88    \nframe=   50 fps=0.8 q=30.4 size=       0KiB time=00:00:00.80 bitrate=   0.4kbits/s speed=0.0128x elapsed=0:01:02.40    \nframe=   50 fps=0.8 q=30.4 size=       0KiB time=00:00:00.80 bitrate=   0.4kbits/s speed=0.0127x elapsed=0:01:02.93    \nframe=   51 fps=0.8 q=30.3 size=       0KiB time=00:00:00.81 bitrate=   0.4kbits/s speed=0.0129x elapsed=0:01:03.46    \nframe=   53 fps=0.8 q=25.5 size=       0KiB time=00:00:00.85 bitrate=   0.4kbits/s speed=0.0133x elapsed=0:01:03.98    \nframe=   53 fps=0.8 q=25.5 size=       0KiB time=00:00:00.85 bitrate=   0.4kbits/s speed=0.0132x elapsed=0:01:04.49    \nframe=   53 fps=0.8 q=25.5 size=       0KiB time=00:00:00.85 bitrate=   0.4kbits/s speed=0.0131x elapsed=0:01:05.00    \nframe=   54 fps=0.8 q=28.2 size=       0KiB time=00:00:00.86 bitrate=   0.4kbits/s speed=0.0132x elapsed=0:01:05.53    \nframe=   54 fps=0.8 q=28.2 size=       0KiB time=00:00:00.86 bitrate=   0.4kbits/s speed=0.0131x elapsed=0:01:06.05    \nframe=   55 fps=0.8 q=30.8 size=       0KiB time=00:00:00.88 bitrate=   0.4kbits/s speed=0.0133x elapsed=0:01:06.57    \nframe=   55 fps=0.8 q=30.8 size=       0KiB time=00:00:00.88 bitrate=   0.4kbits/s speed=0.0132x elapsed=0:01:07.09    \nframe=   55 fps=0.8 q=30.8 size=       0KiB time=00:00:00.88 bitrate=   0.4kbits/s speed=0.0131x elapsed=0:01:07.62    \nframe=   56 fps=0.8 q=30.9 size=       0KiB time=00:00:00.90 bitrate=   0.4kbits/s speed=0.0132x elapsed=0:01:08.15    \nframe=   57 fps=0.8 q=25.7 size=       0KiB time=00:00:00.91 bitrate=   0.4kbits/s speed=0.0133x elapsed=0:01:08.67    \nframe=   58 fps=0.8 q=28.9 size=     256KiB time=00:00:00.93 bitrate=2247.3kbits/s speed=0.0135x elapsed=0:01:09.18    \nframe=   58 fps=0.8 q=28.9 size=     256KiB time=00:00:00.93 bitrate=2247.3kbits/s speed=0.0134x elapsed=0:01:09.71    \nframe=   58 fps=0.8 q=28.9 size=     256KiB time=00:00:00.93 bitrate=2247.3kbits/s speed=0.0133x elapsed=0:01:10.23    \nframe=   58 fps=0.8 q=28.9 size=     256KiB time=00:00:00.93 bitrate=2247.3kbits/s speed=0.0132x elapsed=0:01:10.77    \nframe=   59 fps=0.8 q=31.6 size=     256KiB time=00:00:00.95 bitrate=2207.9kbits/s speed=0.0133x elapsed=0:01:11.29    \nframe=   59 fps=0.8 q=31.6 size=     256KiB time=00:00:00.95 bitrate=2207.9kbits/s speed=0.0132x elapsed=0:01:11.80    \nframe=   60 fps=0.8 q=31.1 size=     256KiB time=00:00:00.96 bitrate=2169.8kbits/s speed=0.0134x elapsed=0:01:12.32    \nframe=   60 fps=0.8 q=31.1 size=     256KiB time=00:00:00.96 bitrate=2169.8kbits/s speed=0.0133x elapsed=0:01:12.83    \nframe=   60 fps=0.8 q=31.1 size=     256KiB time=00:00:00.96 bitrate=2169.8kbits/s speed=0.0132x elapsed=0:01:13.36    \nframe=   61 fps=0.8 q=25.3 size=     256KiB time=00:00:00.98 bitrate=2133.1kbits/s speed=0.0133x elapsed=0:01:13.86    \nframe=   62 fps=0.8 q=29.1 size=     256KiB time=00:00:01.00 bitrate=2097.5kbits/s speed=0.0134x elapsed=0:01:14.38    \nframe=   62 fps=0.8 q=29.1 size=     256KiB time=00:00:01.00 bitrate=2097.5kbits/s speed=0.0134x elapsed=0:01:14.89    \nframe=   62 fps=0.8 q=29.1 size=     256KiB time=00:00:01.00 bitrate=2097.5kbits/s speed=0.0133x elapsed=0:01:15.41    \nframe=   63 fps=0.8 q=31.3 size=     256KiB time=00:00:01.01 bitrate=2063.1kbits/s speed=0.0134x elapsed=0:01:15.93    \nframe=   63 fps=0.8 q=31.3 size=     256KiB time=00:00:01.01 bitrate=2063.1kbits/s speed=0.0133x elapsed=0:01:16.44    \nframe=   64 fps=0.8 q=31.0 size=     256KiB time=00:00:01.03 bitrate=2029.8kbits/s speed=0.0134x elapsed=0:01:16.95    \nframe=   65 fps=0.8 q=26.2 size=     256KiB time=00:00:01.05 bitrate=1997.6kbits/s speed=0.0135x elapsed=0:01:17.49    \nframe=   66 fps=0.8 q=28.9 size=     256KiB time=00:00:01.06 bitrate=1966.4kbits/s speed=0.0137x elapsed=0:01:18.01    \nframe=   66 fps=0.8 q=28.9 size=     256KiB time=00:00:01.06 bitrate=1966.4kbits/s speed=0.0136x elapsed=0:01:18.52    \nframe=   67 fps=0.8 q=31.6 size=     256KiB time=00:00:01.08 bitrate=1936.2kbits/s speed=0.0137x elapsed=0:01:19.05    \nframe=   67 fps=0.8 q=31.6 size=     256KiB time=00:00:01.08 bitrate=1936.2kbits/s speed=0.0136x elapsed=0:01:19.59    \nframe=   68 fps=0.8 q=31.0 size=     256KiB time=00:00:01.10 bitrate=1906.8kbits/s speed=0.0137x elapsed=0:01:20.10    \nframe=   69 fps=0.9 q=24.8 size=     256KiB time=00:00:01.11 bitrate=1878.4kbits/s speed=0.0139x elapsed=0:01:20.61    \nframe=   69 fps=0.9 q=24.8 size=     256KiB time=00:00:01.11 bitrate=1878.4kbits/s speed=0.0138x elapsed=0:01:21.15    \nframe=   70 fps=0.9 q=29.5 size=     256KiB time=00:00:01.13 bitrate=1850.7kbits/s speed=0.0139x elapsed=0:01:21.69    \nframe=   70 fps=0.9 q=29.5 size=     256KiB time=00:00:01.13 bitrate=1850.7kbits/s speed=0.0138x elapsed=0:01:22.21    \nframe=   71 fps=0.9 q=30.8 size=     256KiB time=00:00:01.15 bitrate=1823.9kbits/s speed=0.0139x elapsed=0:01:22.72    \nframe=   71 fps=0.9 q=30.8 size=     256KiB time=00:00:01.15 bitrate=1823.9kbits/s speed=0.0138x elapsed=0:01:23.24    \nframe=   72 fps=0.9 q=30.8 size=     256KiB time=00:00:01.16 bitrate=1797.9kbits/s speed=0.0139x elapsed=0:01:23.76    \nframe=   72 fps=0.9 q=30.8 size=     256KiB time=00:00:01.16 bitrate=1797.9kbits/s speed=0.0138x elapsed=0:01:24.29    \nframe=   73 fps=0.9 q=30.8 size=     256KiB time=00:00:01.18 bitrate=1772.5kbits/s speed=0.0139x elapsed=0:01:24.83    \nframe=   73 fps=0.9 q=30.8 size=     256KiB time=00:00:01.18 bitrate=1772.5kbits/s speed=0.0139x elapsed=0:01:25.35    \nframe=   74 fps=0.9 q=25.7 size=     256KiB time=00:00:01.20 bitrate=1747.9kbits/s speed=0.014x elapsed=0:01:25.87    \nframe=   75 fps=0.9 q=26.4 size=     256KiB time=00:00:01.21 bitrate=1724.0kbits/s speed=0.0141x elapsed=0:01:26.38    \nframe=   75 fps=0.9 q=26.4 size=     256KiB time=00:00:01.21 bitrate=1724.0kbits/s speed=0.014x elapsed=0:01:26.89    \nframe=   76 fps=0.9 q=30.9 size=     256KiB time=00:00:01.23 bitrate=1700.7kbits/s speed=0.0141x elapsed=0:01:27.42    \nframe=   76 fps=0.9 q=30.9 size=     256KiB time=00:00:01.23 bitrate=1700.7kbits/s speed=0.014x elapsed=0:01:27.94    \nframe=   76 fps=0.9 q=30.9 size=     256KiB time=00:00:01.23 bitrate=1700.7kbits/s speed=0.0139x elapsed=0:01:28.48    \nframe=   77 fps=0.9 q=31.0 size=     256KiB time=00:00:01.25 bitrate=1678.0kbits/s speed=0.014x elapsed=0:01:29.02    \nframe=   77 fps=0.9 q=31.0 size=     256KiB time=00:00:01.25 bitrate=1678.0kbits/s speed=0.014x elapsed=0:01:29.54    \nframe=   77 fps=0.9 q=31.0 size=     256KiB time=00:00:01.25 bitrate=1678.0kbits/s speed=0.0139x elapsed=0:01:30.07    \nframe=   78 fps=0.9 q=31.7 size=     256KiB time=00:00:01.26 bitrate=1655.9kbits/s speed=0.014x elapsed=0:01:30.58    \nframe=   78 fps=0.9 q=31.7 size=     256KiB time=00:00:01.26 bitrate=1655.9kbits/s speed=0.0139x elapsed=0:01:31.10    \nframe=   79 fps=0.9 q=25.3 size=     256KiB time=00:00:01.28 bitrate=1634.4kbits/s speed=0.014x elapsed=0:01:31.64    \nframe=   79 fps=0.9 q=25.3 size=     256KiB time=00:00:01.28 bitrate=1634.4kbits/s speed=0.0139x elapsed=0:01:32.14    \nframe=   80 fps=0.9 q=28.5 size=     256KiB time=00:00:01.30 bitrate=1613.5kbits/s speed=0.014x elapsed=0:01:32.66    \nframe=   80 fps=0.9 q=28.5 size=     256KiB time=00:00:01.30 bitrate=1613.5kbits/s speed=0.014x elapsed=0:01:33.18    \nframe=   81 fps=0.9 q=31.6 size=     256KiB time=00:00:01.31 bitrate=1593.0kbits/s speed=0.0141x elapsed=0:01:33.70    \nframe=   81 fps=0.9 q=31.6 size=     256KiB time=00:00:01.31 bitrate=1593.0kbits/s speed=0.014x elapsed=0:01:34.22    \nframe=   81 fps=0.9 q=31.6 size=     256KiB time=00:00:01.31 bitrate=1593.0kbits/s speed=0.0139x elapsed=0:01:34.74    \nframe=   82 fps=0.9 q=30.9 size=     256KiB time=00:00:01.33 bitrate=1573.1kbits/s speed=0.014x elapsed=0:01:35.27    \nframe=   82 fps=0.9 q=30.9 size=     256KiB time=00:00:01.33 bitrate=1573.1kbits/s speed=0.0139x elapsed=0:01:35.79    \nframe=   83 fps=0.9 q=30.6 size=     256KiB time=00:00:01.35 bitrate=1553.7kbits/s speed=0.014x elapsed=0:01:36.31    \nframe=   83 fps=0.9 q=30.6 size=     256KiB time=00:00:01.35 bitrate=1553.7kbits/s speed=0.0139x elapsed=0:01:36.84    \nframe=   84 fps=0.9 q=25.2 size=     256KiB time=00:00:01.36 bitrate=1534.8kbits/s speed=0.014x elapsed=0:01:37.35    \nframe=   84 fps=0.9 q=25.2 size=     256KiB time=00:00:01.36 bitrate=1534.8kbits/s speed=0.014x elapsed=0:01:37.87    \nframe=   85 fps=0.9 q=29.1 size=     256KiB time=00:00:01.38 bitrate=1516.3kbits/s speed=0.0141x elapsed=0:01:38.41    \nframe=   85 fps=0.9 q=29.1 size=     256KiB time=00:00:01.38 bitrate=1516.3kbits/s speed=0.014x elapsed=0:01:38.94    \nframe=   86 fps=0.9 q=31.7 size=     256KiB time=00:00:01.40 bitrate=1498.2kbits/s speed=0.0141x elapsed=0:01:39.46    \nframe=   86 fps=0.9 q=31.7 size=     256KiB time=00:00:01.40 bitrate=1498.2kbits/s speed=0.014x elapsed=0:01:40.01    \nframe=   86 fps=0.9 q=31.7 size=     256KiB time=00:00:01.40 bitrate=1498.2kbits/s speed=0.0139x elapsed=0:01:40.53    \nframe=   86 fps=0.9 q=31.7 size=     256KiB time=00:00:01.40 bitrate=1498.2kbits/s speed=0.0139x elapsed=0:01:41.08    \nframe=   86 fps=0.8 q=31.7 size=     256KiB time=00:00:01.40 bitrate=1498.2kbits/s speed=0.0138x elapsed=0:01:41.62    \nframe=   86 fps=0.8 q=31.7 size=     256KiB time=00:00:01.40 bitrate=1498.2kbits/s speed=0.0137x elapsed=0:01:42.13    \nframe=   87 fps=0.8 q=31.7 size=     256KiB time=00:00:01.41 bitrate=1480.6kbits/s speed=0.0138x elapsed=0:01:42.65    \nframe=   87 fps=0.8 q=31.7 size=     256KiB time=00:00:01.41 bitrate=1480.6kbits/s speed=0.0137x elapsed=0:01:43.22    \nframe=   87 fps=0.8 q=31.7 size=     256KiB time=00:00:01.41 bitrate=1480.6kbits/s speed=0.0137x elapsed=0:01:43.73    \nframe=   88 fps=0.8 q=31.6 size=     256KiB time=00:00:01.43 bitrate=1463.4kbits/s speed=0.0137x elapsed=0:01:44.27    \nframe=   88 fps=0.8 q=31.6 size=     256KiB time=00:00:01.43 bitrate=1463.4kbits/s speed=0.0137x elapsed=0:01:44.85    \nframe=   88 fps=0.8 q=31.6 size=     256KiB time=00:00:01.43 bitrate=1463.4kbits/s speed=0.0136x elapsed=0:01:45.39    \nframe=   88 fps=0.8 q=31.6 size=     256KiB time=00:00:01.43 bitrate=1463.4kbits/s speed=0.0135x elapsed=0:01:45.91    \nframe=   88 fps=0.8 q=31.6 size=     256KiB time=00:00:01.43 bitrate=1463.4kbits/s speed=0.0135x elapsed=0:01:46.43    \nframe=   88 fps=0.8 q=31.6 size=     256KiB time=00:00:01.43 bitrate=1463.4kbits/s speed=0.0134x elapsed=0:01:46.96    \nframe=   89 fps=0.8 q=24.8 size=     256KiB time=00:00:01.45 bitrate=1446.6kbits/s speed=0.0135x elapsed=0:01:47.51    \nframe=   89 fps=0.8 q=24.8 size=     256KiB time=00:00:01.45 bitrate=1446.6kbits/s speed=0.0134x elapsed=0:01:48.06    \nframe=   89 fps=0.8 q=24.8 size=     256KiB time=00:00:01.45 bitrate=1446.6kbits/s speed=0.0134x elapsed=0:01:48.57    \nframe=   89 fps=0.8 q=24.8 size=     256KiB time=00:00:01.45 bitrate=1446.6kbits/s speed=0.0133x elapsed=0:01:49.08    \nframe=   89 fps=0.8 q=24.8 size=     256KiB time=00:00:01.45 bitrate=1446.6kbits/s speed=0.0132x elapsed=0:01:49.60    \nframe=   90 fps=0.8 q=30.3 size=     256KiB time=00:00:01.46 bitrate=1430.1kbits/s speed=0.0133x elapsed=0:01:50.11    \nframe=   90 fps=0.8 q=30.3 size=     256KiB time=00:00:01.46 bitrate=1430.1kbits/s speed=0.0133x elapsed=0:01:50.65    \nframe=   90 fps=0.8 q=30.3 size=     256KiB time=00:00:01.46 bitrate=1430.1kbits/s speed=0.0132x elapsed=0:01:51.20    \nframe=   90 fps=0.8 q=30.3 size=     256KiB time=00:00:01.46 bitrate=1430.1kbits/s speed=0.0131x elapsed=0:01:51.78    \nframe=   91 fps=0.8 q=31.0 size=     256KiB time=00:00:01.48 bitrate=1414.0kbits/s speed=0.0132x elapsed=0:01:52.33    \nframe=   91 fps=0.8 q=31.0 size=     256KiB time=00:00:01.48 bitrate=1414.0kbits/s speed=0.0131x elapsed=0:01:52.87    \nframe=   91 fps=0.8 q=31.0 size=     256KiB time=00:00:01.48 bitrate=1414.0kbits/s speed=0.0131x elapsed=0:01:53.39    \nframe=   91 fps=0.8 q=31.0 size=     256KiB time=00:00:01.48 bitrate=1414.0kbits/s speed=0.013x elapsed=0:01:53.93    \nframe=   91 fps=0.8 q=31.0 size=     256KiB time=00:00:01.48 bitrate=1414.0kbits/s speed=0.013x elapsed=0:01:54.46    \nframe=   91 fps=0.8 q=31.0 size=     256KiB time=00:00:01.48 bitrate=1414.0kbits/s speed=0.0129x elapsed=0:01:55.01    \nframe=   91 fps=0.8 q=31.0 size=     256KiB time=00:00:01.48 bitrate=1414.0kbits/s speed=0.0128x elapsed=0:01:55.56    \nframe=   91 fps=0.8 q=31.0 size=     256KiB time=00:00:01.48 bitrate=1414.0kbits/s speed=0.0128x elapsed=0:01:56.11    \nframe=   91 fps=0.8 q=31.0 size=     256KiB time=00:00:01.48 bitrate=1414.0kbits/s speed=0.0127x elapsed=0:01:56.66    \nframe=   91 fps=0.8 q=31.0 size=     256KiB time=00:00:01.48 bitrate=1414.0kbits/s speed=0.0126x elapsed=0:01:57.29    \nframe=   91 fps=0.8 q=31.0 size=     256KiB time=00:00:01.48 bitrate=1414.0kbits/s speed=0.0126x elapsed=0:01:57.88    \nframe=   92 fps=0.8 q=31.0 size=     256KiB time=00:00:01.50 bitrate=1398.3kbits/s speed=0.0127x elapsed=0:01:58.42    \nframe=   92 fps=0.8 q=31.0 size=     256KiB time=00:00:01.50 bitrate=1398.3kbits/s speed=0.0126x elapsed=0:01:58.98    \nframe=   93 fps=0.8 q=30.7 size=     256KiB time=00:00:01.51 bitrate=1383.0kbits/s speed=0.0127x elapsed=0:01:59.54    \nframe=   93 fps=0.8 q=30.7 size=     256KiB time=00:00:01.51 bitrate=1383.0kbits/s speed=0.0126x elapsed=0:02:00.06    \nframe=   94 fps=0.8 q=24.5 size=     256KiB time=00:00:01.53 bitrate=1367.9kbits/s speed=0.0127x elapsed=0:02:00.59    \nframe=   94 fps=0.8 q=24.5 size=     256KiB time=00:00:01.53 bitrate=1367.9kbits/s speed=0.0127x elapsed=0:02:01.12    \nframe=   96 fps=0.8 q=30.9 size=     256KiB time=00:00:01.56 bitrate=1338.8kbits/s speed=0.0129x elapsed=0:02:01.64    \nframe=   96 fps=0.8 q=30.9 size=     256KiB time=00:00:01.56 bitrate=1338.8kbits/s speed=0.0128x elapsed=0:02:02.16    \nframe=   97 fps=0.8 q=30.8 size=     256KiB time=00:00:01.58 bitrate=1324.7kbits/s speed=0.0129x elapsed=0:02:02.70    \nframe=   97 fps=0.8 q=30.8 size=     256KiB time=00:00:01.58 bitrate=1324.7kbits/s speed=0.0128x elapsed=0:02:03.25    \nframe=   98 fps=0.8 q=30.9 size=     256KiB time=00:00:01.60 bitrate=1310.9kbits/s speed=0.0129x elapsed=0:02:03.78    \nframe=   98 fps=0.8 q=30.9 size=     256KiB time=00:00:01.60 bitrate=1310.9kbits/s speed=0.0129x elapsed=0:02:04.33    \nframe=   98 fps=0.8 q=30.9 size=     256KiB time=00:00:01.60 bitrate=1310.9kbits/s speed=0.0128x elapsed=0:02:04.85    \nframe=   99 fps=0.8 q=24.5 size=     256KiB time=00:00:01.61 bitrate=1297.4kbits/s speed=0.0129x elapsed=0:02:05.36    \nframe=  100 fps=0.8 q=29.5 size=     256KiB time=00:00:01.63 bitrate=1284.2kbits/s speed=0.013x elapsed=0:02:05.89    \nframe=  101 fps=0.8 q=30.3 size=     256KiB time=00:00:01.65 bitrate=1271.2kbits/s speed=0.0131x elapsed=0:02:06.43    \nframe=  101 fps=0.8 q=30.3 size=     256KiB time=00:00:01.65 bitrate=1271.2kbits/s speed=0.013x elapsed=0:02:06.98    \nframe=  101 fps=0.8 q=30.3 size=     256KiB time=00:00:01.65 bitrate=1271.2kbits/s speed=0.0129x elapsed=0:02:07.51    \nframe=  101 fps=0.8 q=30.3 size=     256KiB time=00:00:01.65 bitrate=1271.2kbits/s speed=0.0129x elapsed=0:02:08.02    \nframe=  101 fps=0.8 q=30.3 size=     256KiB time=00:00:01.65 bitrate=1271.2kbits/s speed=0.0128x elapsed=0:02:08.54    \nframe=  102 fps=0.8 q=30.0 size=     256KiB time=00:00:01.66 bitrate=1258.5kbits/s speed=0.0129x elapsed=0:02:09.06    \nframe=  102 fps=0.8 q=30.0 size=     256KiB time=00:00:01.66 bitrate=1258.5kbits/s speed=0.0129x elapsed=0:02:09.60    \nframe=  102 fps=0.8 q=30.0 size=     256KiB time=00:00:01.66 bitrate=1258.5kbits/s speed=0.0128x elapsed=0:02:10.13    \nframe=  102 fps=0.8 q=30.0 size=     256KiB time=00:00:01.66 bitrate=1258.5kbits/s speed=0.0128x elapsed=0:02:10.67    \nframe=  103 fps=0.8 q=30.0 size=     256KiB time=00:00:01.68 bitrate=1246.0kbits/s speed=0.0128x elapsed=0:02:11.21    \nframe=  103 fps=0.8 q=30.0 size=     256KiB time=00:00:01.68 bitrate=1246.0kbits/s speed=0.0128x elapsed=0:02:11.74    \nframe=  103 fps=0.8 q=30.0 size=     256KiB time=00:00:01.68 bitrate=1246.0kbits/s speed=0.0127x elapsed=0:02:12.26    \nframe=  103 fps=0.8 q=30.0 size=     256KiB time=00:00:01.68 bitrate=1246.0kbits/s speed=0.0127x elapsed=0:02:12.82    \nframe=  104 fps=0.8 q=23.5 size=     256KiB time=00:00:01.70 bitrate=1233.8kbits/s speed=0.0127x elapsed=0:02:13.37    \nframe=  104 fps=0.8 q=23.5 size=     256KiB time=00:00:01.70 bitrate=1233.8kbits/s speed=0.0127x elapsed=0:02:13.92    \nframe=  104 fps=0.8 q=23.5 size=     256KiB time=00:00:01.70 bitrate=1233.8kbits/s speed=0.0126x elapsed=0:02:14.46    \nframe=  105 fps=0.8 q=29.3 size=     512KiB time=00:00:01.71 bitrate=2443.5kbits/s speed=0.0127x elapsed=0:02:14.99    \nframe=  105 fps=0.8 q=29.3 size=     512KiB time=00:00:01.71 bitrate=2443.5kbits/s speed=0.0127x elapsed=0:02:15.52    \nframe=  105 fps=0.8 q=29.3 size=     512KiB time=00:00:01.71 bitrate=2443.5kbits/s speed=0.0126x elapsed=0:02:16.05    \nframe=  106 fps=0.8 q=29.9 size=     512KiB time=00:00:01.73 bitrate=2420.0kbits/s speed=0.0127x elapsed=0:02:16.57    \nframe=  106 fps=0.8 q=29.9 size=     512KiB time=00:00:01.73 bitrate=2420.0kbits/s speed=0.0126x elapsed=0:02:17.12    \nframe=  106 fps=0.8 q=29.9 size=     512KiB time=00:00:01.73 bitrate=2420.0kbits/s speed=0.0126x elapsed=0:02:17.65    \nframe=  106 fps=0.8 q=29.9 size=     512KiB time=00:00:01.73 bitrate=2420.0kbits/s speed=0.0125x elapsed=0:02:18.21    \nframe=  107 fps=0.8 q=30.5 size=     512KiB time=00:00:01.75 bitrate=2396.9kbits/s speed=0.0126x elapsed=0:02:18.73    \nframe=  107 fps=0.8 q=30.5 size=     512KiB time=00:00:01.75 bitrate=2396.9kbits/s speed=0.0126x elapsed=0:02:19.24    \nframe=  107 fps=0.8 q=30.5 size=     512KiB time=00:00:01.75 bitrate=2396.9kbits/s speed=0.0125x elapsed=0:02:19.79    \nframe=  108 fps=0.8 q=30.6 size=     512KiB time=00:00:01.76 bitrate=2374.3kbits/s speed=0.0126x elapsed=0:02:20.35    \nframe=  108 fps=0.8 q=30.6 size=     512KiB time=00:00:01.76 bitrate=2374.3kbits/s speed=0.0125x elapsed=0:02:20.94    \nframe=  108 fps=0.8 q=30.6 size=     512KiB time=00:00:01.76 bitrate=2374.3kbits/s speed=0.0125x elapsed=0:02:21.49    \nframe=  108 fps=0.8 q=30.6 size=     512KiB time=00:00:01.76 bitrate=2374.3kbits/s speed=0.0124x elapsed=0:02:22.06    \nframe=  108 fps=0.8 q=30.6 size=     512KiB time=00:00:01.76 bitrate=2374.3kbits/s speed=0.0124x elapsed=0:02:22.67    \nframe=  109 fps=0.8 q=24.1 size=     512KiB time=00:00:01.78 bitrate=2352.1kbits/s speed=0.0125x elapsed=0:02:23.20    \nframe=  109 fps=0.8 q=24.1 size=     512KiB time=00:00:01.78 bitrate=2352.1kbits/s speed=0.0124x elapsed=0:02:23.72    \nframe=  109 fps=0.8 q=24.1 size=     512KiB time=00:00:01.78 bitrate=2352.1kbits/s speed=0.0124x elapsed=0:02:24.26    \nframe=  109 fps=0.8 q=24.1 size=     512KiB time=00:00:01.78 bitrate=2352.1kbits/s speed=0.0123x elapsed=0:02:24.82    \nframe=  109 fps=0.7 q=24.1 size=     512KiB time=00:00:01.78 bitrate=2352.1kbits/s speed=0.0123x elapsed=0:02:25.36    \nframe=  109 fps=0.7 q=24.1 size=     512KiB time=00:00:01.78 bitrate=2352.1kbits/s speed=0.0122x elapsed=0:02:25.89    \nframe=  111 fps=0.8 q=30.6 size=     512KiB time=00:00:01.81 bitrate=2309.0kbits/s speed=0.0124x elapsed=0:02:26.42    \nframe=  111 fps=0.8 q=30.6 size=     512KiB time=00:00:01.81 bitrate=2309.0kbits/s speed=0.0124x elapsed=0:02:26.94    \nframe=  111 fps=0.8 q=30.6 size=     512KiB time=00:00:01.81 bitrate=2309.0kbits/s speed=0.0123x elapsed=0:02:27.48    \nframe=  111 fps=0.7 q=30.6 size=     512KiB time=00:00:01.81 bitrate=2309.0kbits/s speed=0.0123x elapsed=0:02:28.03    \nframe=  111 fps=0.7 q=30.6 size=     512KiB time=00:00:01.81 bitrate=2309.0kbits/s speed=0.0122x elapsed=0:02:28.61    \nframe=  111 fps=0.7 q=30.6 size=     512KiB time=00:00:01.81 bitrate=2309.0kbits/s speed=0.0122x elapsed=0:02:29.15    \nframe=  112 fps=0.7 q=30.0 size=     512KiB time=00:00:01.83 bitrate=2288.0kbits/s speed=0.0122x elapsed=0:02:29.72    \nframe=  112 fps=0.7 q=30.0 size=     512KiB time=00:00:01.83 bitrate=2288.0kbits/s speed=0.0122x elapsed=0:02:30.27    \nframe=  112 fps=0.7 q=30.0 size=     512KiB time=00:00:01.83 bitrate=2288.0kbits/s speed=0.0122x elapsed=0:02:30.83    \nframe=  112 fps=0.7 q=30.0 size=     512KiB time=00:00:01.83 bitrate=2288.0kbits/s speed=0.0121x elapsed=0:02:31.35    \nframe=  113 fps=0.7 q=29.8 size=     512KiB time=00:00:01.85 bitrate=2267.4kbits/s speed=0.0122x elapsed=0:02:31.87    \nframe=  113 fps=0.7 q=29.8 size=     512KiB time=00:00:01.85 bitrate=2267.4kbits/s speed=0.0121x elapsed=0:02:32.41    \nframe=  113 fps=0.7 q=29.8 size=     512KiB time=00:00:01.85 bitrate=2267.4kbits/s speed=0.0121x elapsed=0:02:33.00    \nframe=  113 fps=0.7 q=29.8 size=     512KiB time=00:00:01.85 bitrate=2267.4kbits/s speed=0.012x elapsed=0:02:33.55    \nframe=  113 fps=0.7 q=29.8 size=     512KiB time=00:00:01.85 bitrate=2267.4kbits/s speed=0.012x elapsed=0:02:34.13    \nframe=  114 fps=0.7 q=23.3 size=     512KiB time=00:00:01.86 bitrate=2247.1kbits/s speed=0.0121x elapsed=0:02:34.71    \nframe=  114 fps=0.7 q=23.3 size=     512KiB time=00:00:01.86 bitrate=2247.1kbits/s speed=0.012x elapsed=0:02:35.25    \nframe=  114 fps=0.7 q=23.3 size=     512KiB time=00:00:01.86 bitrate=2247.1kbits/s speed=0.012x elapsed=0:02:35.81    \nframe=  115 fps=0.7 q=28.7 size=     512KiB time=00:00:01.88 bitrate=2227.3kbits/s speed=0.012x elapsed=0:02:36.37    \nframe=  115 fps=0.7 q=28.7 size=     512KiB time=00:00:01.88 bitrate=2227.3kbits/s speed=0.012x elapsed=0:02:36.91    \nframe=  115 fps=0.7 q=28.7 size=     512KiB time=00:00:01.88 bitrate=2227.3kbits/s speed=0.012x elapsed=0:02:37.44    \nframe=  115 fps=0.7 q=28.7 size=     512KiB time=00:00:01.88 bitrate=2227.3kbits/s speed=0.0119x elapsed=0:02:38.00    \nframe=  116 fps=0.7 q=30.2 size=     512KiB time=00:00:01.90 bitrate=2207.7kbits/s speed=0.012x elapsed=0:02:38.53    \nframe=  116 fps=0.7 q=30.2 size=     512KiB time=00:00:01.90 bitrate=2207.7kbits/s speed=0.0119x elapsed=0:02:39.12    \nframe=  116 fps=0.7 q=30.2 size=     512KiB time=00:00:01.90 bitrate=2207.7kbits/s speed=0.0119x elapsed=0:02:39.73    \nframe=  116 fps=0.7 q=30.2 size=     512KiB time=00:00:01.90 bitrate=2207.7kbits/s speed=0.0119x elapsed=0:02:40.27    \nframe=  116 fps=0.7 q=30.2 size=     512KiB time=00:00:01.90 bitrate=2207.7kbits/s speed=0.0118x elapsed=0:02:40.79    \nframe=  116 fps=0.7 q=30.2 size=     512KiB time=00:00:01.90 bitrate=2207.7kbits/s speed=0.0118x elapsed=0:02:41.33    \nframe=  116 fps=0.7 q=30.2 size=     512KiB time=00:00:01.90 bitrate=2207.7kbits/s speed=0.0117x elapsed=0:02:41.86    \nframe=  116 fps=0.7 q=30.2 size=     512KiB time=00:00:01.90 bitrate=2207.7kbits/s speed=0.0117x elapsed=0:02:42.38    \nframe=  116 fps=0.7 q=30.2 size=     512KiB time=00:00:01.90 bitrate=2207.7kbits/s speed=0.0117x elapsed=0:02:42.93    \nframe=  116 fps=0.7 q=30.2 size=     512KiB time=00:00:01.90 bitrate=2207.7kbits/s speed=0.0116x elapsed=0:02:43.47    \nframe=  116 fps=0.7 q=30.2 size=     512KiB time=00:00:01.90 bitrate=2207.7kbits/s speed=0.0116x elapsed=0:02:44.01    \nframe=  116 fps=0.7 q=30.2 size=     512KiB time=00:00:01.90 bitrate=2207.7kbits/s speed=0.0115x elapsed=0:02:44.54    \nframe=  116 fps=0.7 q=30.2 size=     512KiB time=00:00:01.90 bitrate=2207.7kbits/s speed=0.0115x elapsed=0:02:45.08    \nframe=  116 fps=0.7 q=30.2 size=     512KiB time=00:00:01.90 bitrate=2207.7kbits/s speed=0.0115x elapsed=0:02:45.64    \nframe=  116 fps=0.7 q=30.2 size=     512KiB time=00:00:01.90 bitrate=2207.7kbits/s speed=0.0114x elapsed=0:02:46.16    \nframe=  116 fps=0.7 q=30.2 size=     512KiB time=00:00:01.90 bitrate=2207.7kbits/s speed=0.0114x elapsed=0:02:46.77    \nframe=  116 fps=0.7 q=30.2 size=     512KiB time=00:00:01.90 bitrate=2207.7kbits/s speed=0.0114x elapsed=0:02:47.37    \nframe=  116 fps=0.7 q=30.2 size=     512KiB time=00:00:01.90 bitrate=2207.7kbits/s speed=0.0113x elapsed=0:02:47.92    \nframe=  116 fps=0.7 q=30.2 size=     512KiB time=00:00:01.90 bitrate=2207.7kbits/s speed=0.0113x elapsed=0:02:48.50    \nframe=  116 fps=0.7 q=30.2 size=     512KiB time=00:00:01.90 bitrate=2207.7kbits/s speed=0.0112x elapsed=0:02:49.09    \nframe=  116 fps=0.7 q=30.2 size=     512KiB time=00:00:01.90 bitrate=2207.7kbits/s speed=0.0112x elapsed=0:02:49.65    \nframe=  116 fps=0.7 q=30.2 size=     512KiB time=00:00:01.90 bitrate=2207.7kbits/s speed=0.0112x elapsed=0:02:50.23    \nframe=  117 fps=0.7 q=30.1 size=     512KiB time=00:00:01.91 bitrate=2188.5kbits/s speed=0.0112x elapsed=0:02:50.78    \nframe=  117 fps=0.7 q=30.1 size=     512KiB time=00:00:01.91 bitrate=2188.5kbits/s speed=0.0112x elapsed=0:02:51.34    \nframe=  117 fps=0.7 q=30.1 size=     512KiB time=00:00:01.91 bitrate=2188.5kbits/s speed=0.0111x elapsed=0:02:51.97    \nframe=  117 fps=0.7 q=30.1 size=     512KiB time=00:00:01.91 bitrate=2188.5kbits/s speed=0.0111x elapsed=0:02:52.56    \nframe=  117 fps=0.7 q=30.1 size=     512KiB time=00:00:01.91 bitrate=2188.5kbits/s speed=0.0111x elapsed=0:02:53.19    \nframe=  117 fps=0.7 q=30.1 size=     512KiB time=00:00:01.91 bitrate=2188.5kbits/s speed=0.011x elapsed=0:02:53.75    \nframe=  118 fps=0.7 q=30.0 size=     512KiB time=00:00:01.93 bitrate=2169.7kbits/s speed=0.0111x elapsed=0:02:54.33    \nframe=  120 fps=0.7 q=28.9 size=     512KiB time=00:00:01.96 bitrate=2132.9kbits/s speed=0.0112x elapsed=0:02:54.87    \nframe=  121 fps=0.7 q=29.6 size=     512KiB time=00:00:01.98 bitrate=2115.0kbits/s speed=0.0113x elapsed=0:02:55.46    \nframe=  121 fps=0.7 q=29.6 size=     512KiB time=00:00:01.98 bitrate=2115.0kbits/s speed=0.0113x elapsed=0:02:56.01    \nframe=  122 fps=0.7 q=30.0 size=     512KiB time=00:00:02.00 bitrate=2097.3kbits/s speed=0.0113x elapsed=0:02:56.54    \nframe=  122 fps=0.7 q=30.0 size=     512KiB time=00:00:02.00 bitrate=2097.3kbits/s speed=0.0113x elapsed=0:02:57.06    \nframe=  122 fps=0.7 q=30.0 size=     512KiB time=00:00:02.00 bitrate=2097.3kbits/s speed=0.0113x elapsed=0:02:57.63    \nframe=  122 fps=0.7 q=30.0 size=     512KiB time=00:00:02.00 bitrate=2097.3kbits/s speed=0.0112x elapsed=0:02:58.18    \nframe=  122 fps=0.7 q=30.0 size=     512KiB time=00:00:02.00 bitrate=2097.3kbits/s speed=0.0112x elapsed=0:02:58.70    \nframe=  123 fps=0.7 q=29.6 size=     512KiB time=00:00:02.01 bitrate=2080.0kbits/s speed=0.0112x elapsed=0:02:59.26    \nframe=  123 fps=0.7 q=29.6 size=     512KiB time=00:00:02.01 bitrate=2080.0kbits/s speed=0.0112x elapsed=0:02:59.83    \nframe=  124 fps=0.7 q=23.6 size=     512KiB time=00:00:02.03 bitrate=2062.9kbits/s speed=0.0113x elapsed=0:03:00.40    \nframe=  124 fps=0.7 q=23.6 size=     512KiB time=00:00:02.03 bitrate=2062.9kbits/s speed=0.0112x elapsed=0:03:00.93    \nframe=  124 fps=0.7 q=23.6 size=     512KiB time=00:00:02.03 bitrate=2062.9kbits/s speed=0.0112x elapsed=0:03:01.47    \nframe=  124 fps=0.7 q=23.6 size=     512KiB time=00:00:02.03 bitrate=2062.9kbits/s speed=0.0112x elapsed=0:03:02.00    \nframe=  124 fps=0.7 q=23.6 size=     512KiB time=00:00:02.03 bitrate=2062.9kbits/s speed=0.0111x elapsed=0:03:02.53    \nframe=  125 fps=0.7 q=28.8 size=     512KiB time=00:00:02.05 bitrate=2046.2kbits/s speed=0.0112x elapsed=0:03:03.08    \nframe=  126 fps=0.7 q=30.2 size=     512KiB time=00:00:02.06 bitrate=2029.7kbits/s speed=0.0113x elapsed=0:03:03.61    \nframe=  127 fps=0.7 q=29.8 size=     512KiB time=00:00:02.08 bitrate=2013.4kbits/s speed=0.0113x elapsed=0:03:04.13    \nframe=  127 fps=0.7 q=29.8 size=     512KiB time=00:00:02.08 bitrate=2013.4kbits/s speed=0.0113x elapsed=0:03:04.66    \nframe=  127 fps=0.7 q=29.8 size=     512KiB time=00:00:02.08 bitrate=2013.4kbits/s speed=0.0112x elapsed=0:03:05.20    \nframe=  127 fps=0.7 q=29.8 size=     512KiB time=00:00:02.08 bitrate=2013.4kbits/s speed=0.0112x elapsed=0:03:05.75    \nframe=  127 fps=0.7 q=29.8 size=     512KiB time=00:00:02.08 bitrate=2013.4kbits/s speed=0.0112x elapsed=0:03:06.31    \nframe=  127 fps=0.7 q=29.8 size=     512KiB time=00:00:02.08 bitrate=2013.4kbits/s speed=0.0112x elapsed=0:03:06.84    \nframe=  128 fps=0.7 q=29.8 size=     512KiB time=00:00:02.10 bitrate=1997.5kbits/s speed=0.0112x elapsed=0:03:07.39    \nframe=  128 fps=0.7 q=29.8 size=     512KiB time=00:00:02.10 bitrate=1997.5kbits/s speed=0.0112x elapsed=0:03:07.92    \nframe=  128 fps=0.7 q=29.8 size=     512KiB time=00:00:02.10 bitrate=1997.5kbits/s speed=0.0111x elapsed=0:03:08.49    \nframe=  128 fps=0.7 q=29.8 size=     512KiB time=00:00:02.10 bitrate=1997.5kbits/s speed=0.0111x elapsed=0:03:09.01    \nframe=  128 fps=0.7 q=29.8 size=     512KiB time=00:00:02.10 bitrate=1997.5kbits/s speed=0.0111x elapsed=0:03:09.55    \nframe=  129 fps=0.7 q=23.4 size=     512KiB time=00:00:02.11 bitrate=1981.7kbits/s speed=0.0111x elapsed=0:03:10.12    \nframe=  130 fps=0.7 q=29.0 size=     512KiB time=00:00:02.13 bitrate=1966.2kbits/s speed=0.0112x elapsed=0:03:10.64    \nframe=  130 fps=0.7 q=29.0 size=     512KiB time=00:00:02.13 bitrate=1966.2kbits/s speed=0.0112x elapsed=0:03:11.18    \nframe=  131 fps=0.7 q=30.2 size=     512KiB time=00:00:02.15 bitrate=1951.0kbits/s speed=0.0112x elapsed=0:03:11.70    \nframe=  131 fps=0.7 q=30.2 size=     512KiB time=00:00:02.15 bitrate=1951.0kbits/s speed=0.0112x elapsed=0:03:12.21    \nframe=  131 fps=0.7 q=30.2 size=     512KiB time=00:00:02.15 bitrate=1951.0kbits/s speed=0.0112x elapsed=0:03:12.78    \nframe=  132 fps=0.7 q=29.7 size=     512KiB time=00:00:02.16 bitrate=1936.0kbits/s speed=0.0112x elapsed=0:03:13.32    \nframe=  132 fps=0.7 q=29.7 size=     512KiB time=00:00:02.16 bitrate=1936.0kbits/s speed=0.0112x elapsed=0:03:13.89    \nframe=  132 fps=0.7 q=29.7 size=     512KiB time=00:00:02.16 bitrate=1936.0kbits/s speed=0.0111x elapsed=0:03:14.43    \nframe=  133 fps=0.7 q=29.7 size=     512KiB time=00:00:02.18 bitrate=1921.2kbits/s speed=0.0112x elapsed=0:03:14.97    \nframe=  133 fps=0.7 q=29.7 size=     512KiB time=00:00:02.18 bitrate=1921.2kbits/s speed=0.0112x elapsed=0:03:15.50    \nframe=  133 fps=0.7 q=29.7 size=     512KiB time=00:00:02.18 bitrate=1921.2kbits/s speed=0.0111x elapsed=0:03:16.03    \nframe=  133 fps=0.7 q=29.7 size=     512KiB time=00:00:02.18 bitrate=1921.2kbits/s speed=0.0111x elapsed=0:03:16.56    \nframe=  133 fps=0.7 q=29.7 size=     512KiB time=00:00:02.18 bitrate=1921.2kbits/s speed=0.0111x elapsed=0:03:17.07    \nframe=  134 fps=0.7 q=23.0 size=     512KiB time=00:00:02.20 bitrate=1906.7kbits/s speed=0.0111x elapsed=0:03:17.60    \nframe=  135 fps=0.7 q=28.5 size=     512KiB time=00:00:02.21 bitrate=1892.3kbits/s speed=0.0112x elapsed=0:03:18.14    \nframe=  135 fps=0.7 q=28.5 size=     512KiB time=00:00:02.21 bitrate=1892.3kbits/s speed=0.0112x elapsed=0:03:18.68    \nframe=  136 fps=0.7 q=29.5 size=     512KiB time=00:00:02.21 bitrate=1892.3kbits/s speed=0.0111x elapsed=0:03:19.26    \nframe=  136 fps=0.7 q=29.5 size=     512KiB time=00:00:02.23 bitrate=1878.2kbits/s speed=0.0112x elapsed=0:03:19.82    \nframe=  137 fps=0.7 q=29.1 size=     512KiB time=00:00:02.25 bitrate=1864.3kbits/s speed=0.0112x elapsed=0:03:20.35    \nframe=  138 fps=0.7 q=29.1 size=     512KiB time=00:00:02.26 bitrate=1850.6kbits/s speed=0.0113x elapsed=0:03:20.86    \nframe=  138 fps=0.7 q=29.1 size=     512KiB time=00:00:02.26 bitrate=1850.6kbits/s speed=0.0113x elapsed=0:03:21.39    \nframe=  139 fps=0.7 q=23.6 size=     512KiB time=00:00:02.28 bitrate=1837.1kbits/s speed=0.0113x elapsed=0:03:21.92    \nframe=  139 fps=0.7 q=23.6 size=     512KiB time=00:00:02.28 bitrate=1837.1kbits/s speed=0.0113x elapsed=0:03:22.44    \nframe=  139 fps=0.7 q=23.6 size=     512KiB time=00:00:02.28 bitrate=1837.1kbits/s speed=0.0112x elapsed=0:03:22.98    \nframe=  139 fps=0.7 q=23.6 size=     512KiB time=00:00:02.28 bitrate=1837.1kbits/s speed=0.0112x elapsed=0:03:23.49    \nframe=  140 fps=0.7 q=27.4 size=     512KiB time=00:00:02.30 bitrate=1823.8kbits/s speed=0.0113x elapsed=0:03:24.01    \nframe=  141 fps=0.7 q=30.2 size=     512KiB time=00:00:02.31 bitrate=1810.6kbits/s speed=0.0113x elapsed=0:03:24.52    \nframe=  141 fps=0.7 q=30.2 size=     512KiB time=00:00:02.31 bitrate=1810.6kbits/s speed=0.0113x elapsed=0:03:25.04    \nframe=  141 fps=0.7 q=30.2 size=     512KiB time=00:00:02.31 bitrate=1810.6kbits/s speed=0.0113x elapsed=0:03:25.58    \nframe=  141 fps=0.7 q=30.2 size=     512KiB time=00:00:02.31 bitrate=1810.6kbits/s speed=0.0112x elapsed=0:03:26.15    \nframe=  142 fps=0.7 q=30.0 size=     512KiB time=00:00:02.33 bitrate=1797.7kbits/s speed=0.0113x elapsed=0:03:26.68    \nframe=  142 fps=0.7 q=30.0 size=     512KiB time=00:00:02.33 bitrate=1797.7kbits/s speed=0.0113x elapsed=0:03:27.22    \nframe=  142 fps=0.7 q=30.0 size=     512KiB time=00:00:02.33 bitrate=1797.7kbits/s speed=0.0112x elapsed=0:03:27.74    \nframe=  142 fps=0.7 q=30.0 size=     512KiB time=00:00:02.33 bitrate=1797.7kbits/s speed=0.0112x elapsed=0:03:28.26    \nframe=  143 fps=0.7 q=23.6 size=     512KiB time=00:00:02.35 bitrate=1785.0kbits/s speed=0.0113x elapsed=0:03:28.80    \nframe=  143 fps=0.7 q=23.6 size=     512KiB time=00:00:02.35 bitrate=1785.0kbits/s speed=0.0112x elapsed=0:03:29.32    \nframe=  143 fps=0.7 q=23.6 size=     512KiB time=00:00:02.35 bitrate=1785.0kbits/s speed=0.0112x elapsed=0:03:29.87    \nframe=  144 fps=0.7 q=27.1 size=     512KiB time=00:00:02.36 bitrate=1772.4kbits/s speed=0.0112x elapsed=0:03:30.40    \nframe=  145 fps=0.7 q=30.1 size=     512KiB time=00:00:02.38 bitrate=1760.0kbits/s speed=0.0113x elapsed=0:03:30.93    \nframe=  145 fps=0.7 q=30.1 size=     512KiB time=00:00:02.38 bitrate=1760.0kbits/s speed=0.0113x elapsed=0:03:31.45    \nframe=  146 fps=0.7 q=30.0 size=     512KiB time=00:00:02.40 bitrate=1747.8kbits/s speed=0.0113x elapsed=0:03:31.99    \nframe=  147 fps=0.7 q=30.2 size=     512KiB time=00:00:02.41 bitrate=1735.7kbits/s speed=0.0114x elapsed=0:03:32.54    \nframe=  147 fps=0.7 q=30.2 size=     512KiB time=00:00:02.41 bitrate=1735.7kbits/s speed=0.0113x elapsed=0:03:33.07    \nframe=  148 fps=0.7 q=24.0 size=     512KiB time=00:00:02.43 bitrate=1723.8kbits/s speed=0.0114x elapsed=0:03:33.61    \nframe=  148 fps=0.7 q=24.0 size=     512KiB time=00:00:02.43 bitrate=1723.8kbits/s speed=0.0114x elapsed=0:03:34.14    \nframe=  148 fps=0.7 q=24.0 size=     512KiB time=00:00:02.43 bitrate=1723.8kbits/s speed=0.0113x elapsed=0:03:34.66    \nframe=  148 fps=0.7 q=24.0 size=     512KiB time=00:00:02.43 bitrate=1723.8kbits/s speed=0.0113x elapsed=0:03:35.18    \nframe=  148 fps=0.7 q=24.0 size=     512KiB time=00:00:02.43 bitrate=1723.8kbits/s speed=0.0113x elapsed=0:03:35.71    \nframe=  149 fps=0.7 q=27.4 size=     512KiB time=00:00:02.45 bitrate=1712.1kbits/s speed=0.0113x elapsed=0:03:36.22    \nframe=  149 fps=0.7 q=27.4 size=     512KiB time=00:00:02.45 bitrate=1712.1kbits/s speed=0.0113x elapsed=0:03:36.74    \nframe=  149 fps=0.7 q=27.4 size=     512KiB time=00:00:02.45 bitrate=1712.1kbits/s speed=0.0113x elapsed=0:03:37.26    \nframe=  151 fps=0.7 q=30.6 size=     512KiB time=00:00:02.48 bitrate=1689.1kbits/s speed=0.0114x elapsed=0:03:37.80    \nframe=  152 fps=0.7 q=30.5 size=     512KiB time=00:00:02.50 bitrate=1677.9kbits/s speed=0.0115x elapsed=0:03:38.32    \nframe=  152 fps=0.7 q=30.5 size=     512KiB time=00:00:02.50 bitrate=1677.9kbits/s speed=0.0114x elapsed=0:03:38.84    \nframe=  152 fps=0.7 q=30.5 size=     512KiB time=00:00:02.50 bitrate=1677.9kbits/s speed=0.0114x elapsed=0:03:39.36    \nframe=  153 fps=0.7 q=25.5 size=     512KiB time=00:00:02.51 bitrate=1666.8kbits/s speed=0.0114x elapsed=0:03:39.92    \nframe=  154 fps=0.7 q=28.5 size=     512KiB time=00:00:02.53 bitrate=1655.8kbits/s speed=0.0115x elapsed=0:03:40.46    \nframe=  155 fps=0.7 q=30.9 size=     512KiB time=00:00:02.55 bitrate=1645.0kbits/s speed=0.0115x elapsed=0:03:41.02    \nframe=  156 fps=0.7 q=30.8 size=     768KiB time=00:00:02.56 bitrate=2451.4kbits/s speed=0.0116x elapsed=0:03:41.60    \nframe=  156 fps=0.7 q=30.8 size=     768KiB time=00:00:02.56 bitrate=2451.4kbits/s speed=0.0116x elapsed=0:03:42.13    \nframe=  157 fps=0.7 q=31.6 size=     768KiB time=00:00:02.58 bitrate=2435.5kbits/s speed=0.0116x elapsed=0:03:42.66    \nframe=  157 fps=0.7 q=31.6 size=     768KiB time=00:00:02.58 bitrate=2435.5kbits/s speed=0.0116x elapsed=0:03:43.18    \nframe=  157 fps=0.7 q=31.6 size=     768KiB time=00:00:02.58 bitrate=2435.5kbits/s speed=0.0115x elapsed=0:03:43.69    \nframe=  157 fps=0.7 q=31.6 size=     768KiB time=00:00:02.58 bitrate=2435.5kbits/s speed=0.0115x elapsed=0:03:44.22    \nframe=  157 fps=0.7 q=31.6 size=     768KiB time=00:00:02.58 bitrate=2435.5kbits/s speed=0.0115x elapsed=0:03:44.75    \nframe=  158 fps=0.7 q=25.1 size=     768KiB time=00:00:02.60 bitrate=2419.9kbits/s speed=0.0115x elapsed=0:03:45.28    \nframe=  158 fps=0.7 q=25.1 size=     768KiB time=00:00:02.60 bitrate=2419.9kbits/s speed=0.0115x elapsed=0:03:45.80    \nframe=  158 fps=0.7 q=25.1 size=     768KiB time=00:00:02.60 bitrate=2419.9kbits/s speed=0.0115x elapsed=0:03:46.32    \nframe=  158 fps=0.7 q=25.1 size=     768KiB time=00:00:02.60 bitrate=2419.9kbits/s speed=0.0115x elapsed=0:03:46.87    \nframe=  160 fps=0.7 q=31.5 size=     768KiB time=00:00:02.63 bitrate=2389.3kbits/s speed=0.0116x elapsed=0:03:47.41    \nframe=  160 fps=0.7 q=31.5 size=     768KiB time=00:00:02.63 bitrate=2389.3kbits/s speed=0.0116x elapsed=0:03:47.99    \nframe=  160 fps=0.7 q=31.5 size=     768KiB time=00:00:02.63 bitrate=2389.3kbits/s speed=0.0115x elapsed=0:03:48.61    \nframe=  160 fps=0.7 q=31.5 size=     768KiB time=00:00:02.63 bitrate=2389.3kbits/s speed=0.0115x elapsed=0:03:49.15    \nframe=  160 fps=0.7 q=31.5 size=     768KiB time=00:00:02.63 bitrate=2389.3kbits/s speed=0.0115x elapsed=0:03:49.76    \nframe=  161 fps=0.7 q=31.4 size=     768KiB time=00:00:02.65 bitrate=2374.3kbits/s speed=0.0115x elapsed=0:03:50.31    \nframe=  161 fps=0.7 q=31.4 size=     768KiB time=00:00:02.65 bitrate=2374.3kbits/s speed=0.0115x elapsed=0:03:50.84    \nframe=  162 fps=0.7 q=31.7 size=     768KiB time=00:00:02.66 bitrate=2359.4kbits/s speed=0.0115x elapsed=0:03:51.39    \nframe=  162 fps=0.7 q=31.7 size=     768KiB time=00:00:02.66 bitrate=2359.4kbits/s speed=0.0115x elapsed=0:03:51.92    \nframe=  162 fps=0.7 q=31.7 size=     768KiB time=00:00:02.66 bitrate=2359.4kbits/s speed=0.0115x elapsed=0:03:52.47    \nframe=  163 fps=0.7 q=25.4 size=     768KiB time=00:00:02.68 bitrate=2344.8kbits/s speed=0.0115x elapsed=0:03:53.00    \nframe=  163 fps=0.7 q=25.4 size=     768KiB time=00:00:02.68 bitrate=2344.8kbits/s speed=0.0115x elapsed=0:03:53.53    \nframe=  164 fps=0.7 q=28.7 size=     768KiB time=00:00:02.70 bitrate=2330.3kbits/s speed=0.0115x elapsed=0:03:54.06    \nframe=  164 fps=0.7 q=28.7 size=     768KiB time=00:00:02.70 bitrate=2330.3kbits/s speed=0.0115x elapsed=0:03:54.58    \nframe=  165 fps=0.7 q=31.5 size=     768KiB time=00:00:02.71 bitrate=2316.0kbits/s speed=0.0116x elapsed=0:03:55.10    \nframe=  165 fps=0.7 q=31.5 size=     768KiB time=00:00:02.71 bitrate=2316.0kbits/s speed=0.0115x elapsed=0:03:55.62    \nframe=  165 fps=0.7 q=31.5 size=     768KiB time=00:00:02.71 bitrate=2316.0kbits/s speed=0.0115x elapsed=0:03:56.17    \nframe=  165 fps=0.7 q=31.5 size=     768KiB time=00:00:02.71 bitrate=2316.0kbits/s speed=0.0115x elapsed=0:03:56.70    \nframe=  167 fps=0.7 q=25.7 size=     768KiB time=00:00:02.75 bitrate=2287.9kbits/s speed=0.0116x elapsed=0:03:57.21    \nframe=  168 fps=0.7 q=28.9 size=     768KiB time=00:00:02.76 bitrate=2274.1kbits/s speed=0.0116x elapsed=0:03:57.73    \nframe=  169 fps=0.7 q=31.3 size=     768KiB time=00:00:02.78 bitrate=2260.5kbits/s speed=0.0117x elapsed=0:03:58.24    \nframe=  169 fps=0.7 q=31.3 size=     768KiB time=00:00:02.78 bitrate=2260.5kbits/s speed=0.0117x elapsed=0:03:58.76    \nframe=  169 fps=0.7 q=31.3 size=     768KiB time=00:00:02.78 bitrate=2260.5kbits/s speed=0.0116x elapsed=0:03:59.29    \nframe=  169 fps=0.7 q=31.3 size=     768KiB time=00:00:02.78 bitrate=2260.5kbits/s speed=0.0116x elapsed=0:03:59.84    \nframe=  170 fps=0.7 q=31.5 size=     768KiB time=00:00:02.80 bitrate=2247.1kbits/s speed=0.0116x elapsed=0:04:00.35    \nframe=  170 fps=0.7 q=31.5 size=     768KiB time=00:00:02.80 bitrate=2247.1kbits/s speed=0.0116x elapsed=0:04:00.89    \nframe=  171 fps=0.7 q=25.7 size=     768KiB time=00:00:02.81 bitrate=2233.8kbits/s speed=0.0117x elapsed=0:04:01.40    \nframe=  171 fps=0.7 q=25.7 size=     768KiB time=00:00:02.81 bitrate=2233.8kbits/s speed=0.0116x elapsed=0:04:01.92    \nframe=  171 fps=0.7 q=25.7 size=     768KiB time=00:00:02.81 bitrate=2233.8kbits/s speed=0.0116x elapsed=0:04:02.45    \nframe=  172 fps=0.7 q=29.2 size=     768KiB time=00:00:02.83 bitrate=2220.6kbits/s speed=0.0117x elapsed=0:04:02.97    \nframe=  172 fps=0.7 q=29.2 size=     768KiB time=00:00:02.83 bitrate=2220.6kbits/s speed=0.0116x elapsed=0:04:03.49    \nframe=  172 fps=0.7 q=29.2 size=     768KiB time=00:00:02.83 bitrate=2220.6kbits/s speed=0.0116x elapsed=0:04:04.01    \nframe=  172 fps=0.7 q=29.2 size=     768KiB time=00:00:02.83 bitrate=2220.6kbits/s speed=0.0116x elapsed=0:04:04.56    \nframe=  173 fps=0.7 q=31.4 size=     768KiB time=00:00:02.85 bitrate=2207.7kbits/s speed=0.0116x elapsed=0:04:05.09    \nframe=  174 fps=0.7 q=31.9 size=     768KiB time=00:00:02.86 bitrate=2194.8kbits/s speed=0.0117x elapsed=0:04:05.62    \nframe=  175 fps=0.7 q=25.8 size=     768KiB time=00:00:02.88 bitrate=2182.1kbits/s speed=0.0117x elapsed=0:04:06.14    \nframe=  176 fps=0.7 q=29.1 size=     768KiB time=00:00:02.90 bitrate=2169.6kbits/s speed=0.0118x elapsed=0:04:06.68    \nframe=  176 fps=0.7 q=29.1 size=     768KiB time=00:00:02.90 bitrate=2169.6kbits/s speed=0.0117x elapsed=0:04:07.21    \nframe=  176 fps=0.7 q=29.1 size=     768KiB time=00:00:02.90 bitrate=2169.6kbits/s speed=0.0117x elapsed=0:04:07.73    \nframe=  177 fps=0.7 q=31.8 size=     768KiB time=00:00:02.91 bitrate=2157.2kbits/s speed=0.0117x elapsed=0:04:08.25    \nframe=  178 fps=0.7 q=31.7 size=     768KiB time=00:00:02.93 bitrate=2144.9kbits/s speed=0.0118x elapsed=0:04:08.77    \nframe=  178 fps=0.7 q=31.7 size=     768KiB time=00:00:02.93 bitrate=2144.9kbits/s speed=0.0118x elapsed=0:04:09.28    \nframe=  178 fps=0.7 q=31.7 size=     768KiB time=00:00:02.93 bitrate=2144.9kbits/s speed=0.0117x elapsed=0:04:09.80    \nframe=  179 fps=0.7 q=25.9 size=     768KiB time=00:00:02.95 bitrate=2132.8kbits/s speed=0.0118x elapsed=0:04:10.36    \nframe=  180 fps=0.7 q=29.1 size=     768KiB time=00:00:02.96 bitrate=2120.8kbits/s speed=0.0118x elapsed=0:04:10.86    \nframe=  180 fps=0.7 q=29.1 size=     768KiB time=00:00:02.96 bitrate=2120.8kbits/s speed=0.0118x elapsed=0:04:11.39    \nframe=  181 fps=0.7 q=31.5 size=     768KiB time=00:00:02.98 bitrate=2109.0kbits/s speed=0.0118x elapsed=0:04:11.92    \nframe=  181 fps=0.7 q=31.5 size=     768KiB time=00:00:02.98 bitrate=2109.0kbits/s speed=0.0118x elapsed=0:04:12.46    \nframe=  182 fps=0.7 q=31.7 size=     768KiB time=00:00:03.00 bitrate=2097.3kbits/s speed=0.0119x elapsed=0:04:12.98    \nframe=  182 fps=0.7 q=31.7 size=     768KiB time=00:00:03.00 bitrate=2097.3kbits/s speed=0.0118x elapsed=0:04:13.51    \nframe=  183 fps=0.7 q=25.9 size=     768KiB time=00:00:03.01 bitrate=2085.7kbits/s speed=0.0119x elapsed=0:04:14.02    \nframe=  184 fps=0.7 q=29.1 size=     768KiB time=00:00:03.03 bitrate=2074.2kbits/s speed=0.0119x elapsed=0:04:14.53    \nframe=  184 fps=0.7 q=29.1 size=     768KiB time=00:00:03.03 bitrate=2074.2kbits/s speed=0.0119x elapsed=0:04:15.06    \nframe=  185 fps=0.7 q=31.7 size=     768KiB time=00:00:03.05 bitrate=2062.9kbits/s speed=0.0119x elapsed=0:04:15.58    \nframe=  185 fps=0.7 q=31.7 size=     768KiB time=00:00:03.05 bitrate=2062.9kbits/s speed=0.0119x elapsed=0:04:16.11    \nframe=  186 fps=0.7 q=32.4 size=     768KiB time=00:00:03.06 bitrate=2051.7kbits/s speed=0.0119x elapsed=0:04:16.64    \nframe=  188 fps=0.7 q=29.3 size=     768KiB time=00:00:03.10 bitrate=2029.6kbits/s speed=0.0121x elapsed=0:04:17.16    \nframe=  189 fps=0.7 q=32.5 size=     768KiB time=00:00:03.11 bitrate=2018.8kbits/s speed=0.0121x elapsed=0:04:17.68    \nframe=  189 fps=0.7 q=32.5 size=     768KiB time=00:00:03.11 bitrate=2018.8kbits/s speed=0.0121x elapsed=0:04:18.23    \nframe=  189 fps=0.7 q=32.5 size=     768KiB time=00:00:03.11 bitrate=2018.8kbits/s speed=0.012x elapsed=0:04:18.78    \nframe=  189 fps=0.7 q=32.5 size=     768KiB time=00:00:03.11 bitrate=2018.8kbits/s speed=0.012x elapsed=0:04:19.31    \nframe=  190 fps=0.7 q=32.6 size=     768KiB time=00:00:03.13 bitrate=2008.0kbits/s speed=0.0121x elapsed=0:04:19.82    \nframe=  191 fps=0.7 q=25.8 size=     768KiB time=00:00:03.15 bitrate=1997.4kbits/s speed=0.0121x elapsed=0:04:20.33    \nframe=  191 fps=0.7 q=25.8 size=     768KiB time=00:00:03.15 bitrate=1997.4kbits/s speed=0.0121x elapsed=0:04:20.85    \nframe=  192 fps=0.7 q=30.0 size=     768KiB time=00:00:03.16 bitrate=1986.9kbits/s speed=0.0121x elapsed=0:04:21.38    \nframe=  192 fps=0.7 q=30.0 size=     768KiB time=00:00:03.16 bitrate=1986.9kbits/s speed=0.0121x elapsed=0:04:21.89    \nframe=  194 fps=0.7 q=32.9 size=     768KiB time=00:00:03.20 bitrate=1966.2kbits/s speed=0.0122x elapsed=0:04:22.41    \nframe=  195 fps=0.7 q=26.1 size=     768KiB time=00:00:03.21 bitrate=1956.0kbits/s speed=0.0122x elapsed=0:04:22.93    \nframe=  195 fps=0.7 q=26.1 size=     768KiB time=00:00:03.21 bitrate=1956.0kbits/s speed=0.0122x elapsed=0:04:23.44    \nframe=  196 fps=0.7 q=30.3 size=     768KiB time=00:00:03.23 bitrate=1945.9kbits/s speed=0.0122x elapsed=0:04:23.98    \nframe=  197 fps=0.7 q=32.7 size=    1024KiB time=00:00:03.25 bitrate=2581.2kbits/s speed=0.0123x elapsed=0:04:24.53    \nframe=  197 fps=0.7 q=32.7 size=    1024KiB time=00:00:03.25 bitrate=2581.2kbits/s speed=0.0123x elapsed=0:04:25.07    \nframe=  198 fps=0.7 q=33.1 size=    1024KiB time=00:00:03.26 bitrate=2568.0kbits/s speed=0.0123x elapsed=0:04:25.60    \nframe=  198 fps=0.7 q=33.1 size=    1024KiB time=00:00:03.26 bitrate=2568.0kbits/s speed=0.0123x elapsed=0:04:26.13    \nframe=  199 fps=0.7 q=25.9 size=    1024KiB time=00:00:03.28 bitrate=2555.0kbits/s speed=0.0123x elapsed=0:04:26.65    \nframe=  200 fps=0.7 q=29.8 size=    1024KiB time=00:00:03.30 bitrate=2542.1kbits/s speed=0.0124x elapsed=0:04:27.18    \nframe=  200 fps=0.7 q=29.8 size=    1024KiB time=00:00:03.30 bitrate=2542.1kbits/s speed=0.0123x elapsed=0:04:27.76    \nframe=  201 fps=0.7 q=32.8 size=    1024KiB time=00:00:03.31 bitrate=2529.3kbits/s speed=0.0124x elapsed=0:04:28.31    \nframe=  201 fps=0.7 q=32.8 size=    1024KiB time=00:00:03.31 bitrate=2529.3kbits/s speed=0.0123x elapsed=0:04:28.87    \nframe=  201 fps=0.7 q=32.8 size=    1024KiB time=00:00:03.31 bitrate=2529.3kbits/s speed=0.0123x elapsed=0:04:29.41    \nframe=  201 fps=0.7 q=32.8 size=    1024KiB time=00:00:03.31 bitrate=2529.3kbits/s speed=0.0123x elapsed=0:04:29.96    \nframe=  202 fps=0.7 q=32.8 size=    1024KiB time=00:00:03.33 bitrate=2516.7kbits/s speed=0.0123x elapsed=0:04:30.49    \nframe=  202 fps=0.7 q=32.8 size=    1024KiB time=00:00:03.33 bitrate=2516.7kbits/s speed=0.0123x elapsed=0:04:31.05    \nframe=  203 fps=0.7 q=26.2 size=    1024KiB time=00:00:03.35 bitrate=2504.2kbits/s speed=0.0123x elapsed=0:04:31.61    \nframe=  203 fps=0.7 q=26.2 size=    1024KiB time=00:00:03.35 bitrate=2504.2kbits/s speed=0.0123x elapsed=0:04:32.20    \nframe=  203 fps=0.7 q=26.2 size=    1024KiB time=00:00:03.35 bitrate=2504.2kbits/s speed=0.0123x elapsed=0:04:32.72    \nframe=  204 fps=0.7 q=30.2 size=    1024KiB time=00:00:03.36 bitrate=2491.8kbits/s speed=0.0123x elapsed=0:04:33.28    \nframe=  204 fps=0.7 q=30.2 size=    1024KiB time=00:00:03.36 bitrate=2491.8kbits/s speed=0.0123x elapsed=0:04:33.82    \nframe=  205 fps=0.7 q=32.9 size=    1024KiB time=00:00:03.38 bitrate=2479.5kbits/s speed=0.0123x elapsed=0:04:34.38    \nframe=  206 fps=0.7 q=32.9 size=    1024KiB time=00:00:03.40 bitrate=2467.3kbits/s speed=0.0124x elapsed=0:04:34.92    \nframe=  206 fps=0.7 q=32.9 size=    1024KiB time=00:00:03.40 bitrate=2467.3kbits/s speed=0.0123x elapsed=0:04:35.44    \nframe=  206 fps=0.7 q=32.9 size=    1024KiB time=00:00:03.40 bitrate=2467.3kbits/s speed=0.0123x elapsed=0:04:35.97    \nframe=  206 fps=0.7 q=32.9 size=    1024KiB time=00:00:03.40 bitrate=2467.3kbits/s speed=0.0123x elapsed=0:04:36.49    \nframe=  207 fps=0.7 q=25.9 size=    1024KiB time=00:00:03.41 bitrate=2455.3kbits/s speed=0.0123x elapsed=0:04:37.04    \nframe=  207 fps=0.7 q=25.9 size=    1024KiB time=00:00:03.41 bitrate=2455.3kbits/s speed=0.0123x elapsed=0:04:37.57    \nframe=  209 fps=0.8 q=32.6 size=    1024KiB time=00:00:03.43 bitrate=2443.4kbits/s speed=0.0123x elapsed=0:04:38.09    \nframe=  209 fps=0.8 q=32.6 size=    1024KiB time=00:00:03.45 bitrate=2431.6kbits/s speed=0.0124x elapsed=0:04:38.63    \nframe=  209 fps=0.7 q=32.6 size=    1024KiB time=00:00:03.45 bitrate=2431.6kbits/s speed=0.0124x elapsed=0:04:39.14    \nframe=  209 fps=0.7 q=32.6 size=    1024KiB time=00:00:03.45 bitrate=2431.6kbits/s speed=0.0123x elapsed=0:04:39.69    \nframe=  209 fps=0.7 q=32.6 size=    1024KiB time=00:00:03.45 bitrate=2431.6kbits/s speed=0.0123x elapsed=0:04:40.24    \nframe=  210 fps=0.7 q=32.8 size=    1024KiB time=00:00:03.46 bitrate=2419.9kbits/s speed=0.0123x elapsed=0:04:40.77    \nframe=  210 fps=0.7 q=32.8 size=    1024KiB time=00:00:03.46 bitrate=2419.9kbits/s speed=0.0123x elapsed=0:04:41.32    \nframe=  210 fps=0.7 q=32.8 size=    1024KiB time=00:00:03.46 bitrate=2419.9kbits/s speed=0.0123x elapsed=0:04:41.87    \nframe=  210 fps=0.7 q=32.8 size=    1024KiB time=00:00:03.46 bitrate=2419.9kbits/s speed=0.0123x elapsed=0:04:42.43    \nframe=  210 fps=0.7 q=32.8 size=    1024KiB time=00:00:03.46 bitrate=2419.9kbits/s speed=0.0122x elapsed=0:04:43.06    \nframe=  211 fps=0.7 q=26.0 size=    1024KiB time=00:00:03.48 bitrate=2408.3kbits/s speed=0.0123x elapsed=0:04:43.70    \nframe=  211 fps=0.7 q=26.0 size=    1024KiB time=00:00:03.48 bitrate=2408.3kbits/s speed=0.0123x elapsed=0:04:44.27    \nframe=  211 fps=0.7 q=26.0 size=    1024KiB time=00:00:03.48 bitrate=2408.3kbits/s speed=0.0122x elapsed=0:04:44.90    \nframe=  211 fps=0.7 q=26.0 size=    1024KiB time=00:00:03.48 bitrate=2408.3kbits/s speed=0.0122x elapsed=0:04:45.50    \nframe=  211 fps=0.7 q=26.0 size=    1024KiB time=00:00:03.48 bitrate=2408.3kbits/s speed=0.0122x elapsed=0:04:46.15    \nframe=  212 fps=0.7 q=29.9 size=    1024KiB time=00:00:03.50 bitrate=2396.8kbits/s speed=0.0122x elapsed=0:04:46.70    \nframe=  212 fps=0.7 q=29.9 size=    1024KiB time=00:00:03.50 bitrate=2396.8kbits/s speed=0.0122x elapsed=0:04:47.23    \nframe=  213 fps=0.7 q=32.3 size=    1024KiB time=00:00:03.51 bitrate=2385.5kbits/s speed=0.0122x elapsed=0:04:47.78    \nframe=  214 fps=0.7 q=32.5 size=    1024KiB time=00:00:03.53 bitrate=2374.2kbits/s speed=0.0123x elapsed=0:04:48.33    \nframe=  216 fps=0.7 q=30.1 size=    1024KiB time=00:00:03.56 bitrate=2352.0kbits/s speed=0.0123x elapsed=0:04:48.86    \nframe=  216 fps=0.7 q=30.1 size=    1024KiB time=00:00:03.56 bitrate=2352.0kbits/s speed=0.0123x elapsed=0:04:49.38    \nframe=  216 fps=0.7 q=30.1 size=    1024KiB time=00:00:03.56 bitrate=2352.0kbits/s speed=0.0123x elapsed=0:04:49.89    \nframe=  217 fps=0.7 q=32.3 size=    1024KiB time=00:00:03.58 bitrate=2341.1kbits/s speed=0.0123x elapsed=0:04:50.46    \nframe=  218 fps=0.7 q=32.5 size=    1024KiB time=00:00:03.60 bitrate=2330.3kbits/s speed=0.0124x elapsed=0:04:50.98    \nframe=  219 fps=0.8 q=26.3 size=    1024KiB time=00:00:03.61 bitrate=2319.5kbits/s speed=0.0124x elapsed=0:04:51.50    \nframe=  219 fps=0.7 q=26.3 size=    1024KiB time=00:00:03.61 bitrate=2319.5kbits/s speed=0.0124x elapsed=0:04:52.04    \nframe=  220 fps=0.8 q=29.7 size=    1024KiB time=00:00:03.63 bitrate=2308.9kbits/s speed=0.0124x elapsed=0:04:52.57    \nframe=  221 fps=0.8 q=32.8 size=    1024KiB time=00:00:03.65 bitrate=2298.3kbits/s speed=0.0125x elapsed=0:04:53.09    \nframe=  221 fps=0.8 q=32.8 size=    1024KiB time=00:00:03.65 bitrate=2298.3kbits/s speed=0.0124x elapsed=0:04:53.62    \nframe=  222 fps=0.8 q=32.5 size=    1024KiB time=00:00:03.66 bitrate=2287.9kbits/s speed=0.0125x elapsed=0:04:54.14    \nframe=  222 fps=0.8 q=32.5 size=    1024KiB time=00:00:03.66 bitrate=2287.9kbits/s speed=0.0124x elapsed=0:04:54.66    \nframe=  223 fps=0.8 q=26.4 size=    1024KiB time=00:00:03.68 bitrate=2277.5kbits/s speed=0.0125x elapsed=0:04:55.18    \nframe=  224 fps=0.8 q=30.2 size=    1024KiB time=00:00:03.70 bitrate=2267.3kbits/s speed=0.0125x elapsed=0:04:55.70    \nframe=  224 fps=0.8 q=30.2 size=    1024KiB time=00:00:03.70 bitrate=2267.3kbits/s speed=0.0125x elapsed=0:04:56.22    \nframe=  226 fps=0.8 q=32.6 size=    1024KiB time=00:00:03.73 bitrate=2247.0kbits/s speed=0.0126x elapsed=0:04:56.74    \nframe=  226 fps=0.8 q=32.6 size=    1024KiB time=00:00:03.73 bitrate=2247.0kbits/s speed=0.0126x elapsed=0:04:57.25    \nframe=  227 fps=0.8 q=27.3 size=    1024KiB time=00:00:03.75 bitrate=2237.1kbits/s speed=0.0126x elapsed=0:04:57.78    \nframe=  228 fps=0.8 q=30.4 size=    1024KiB time=00:00:03.76 bitrate=2227.2kbits/s speed=0.0126x elapsed=0:04:58.31    \nframe=  229 fps=0.8 q=32.6 size=    1024KiB time=00:00:03.78 bitrate=2217.3kbits/s speed=0.0127x elapsed=0:04:58.81    \nframe=  230 fps=0.8 q=32.6 size=    1024KiB time=00:00:03.80 bitrate=2207.6kbits/s speed=0.0127x elapsed=0:04:59.33    \nframe=  230 fps=0.8 q=32.6 size=    1024KiB time=00:00:03.80 bitrate=2207.6kbits/s speed=0.0127x elapsed=0:04:59.86    \nframe=  231 fps=0.8 q=26.8 size=    1024KiB time=00:00:03.81 bitrate=2198.0kbits/s speed=0.0127x elapsed=0:05:00.39    \nframe=  231 fps=0.8 q=26.8 size=    1024KiB time=00:00:03.81 bitrate=2198.0kbits/s speed=0.0127x elapsed=0:05:00.90    \nframe=  231 fps=0.8 q=26.8 size=    1024KiB time=00:00:03.81 bitrate=2198.0kbits/s speed=0.0127x elapsed=0:05:01.41    \nframe=  232 fps=0.8 q=29.9 size=    1024KiB time=00:00:03.83 bitrate=2188.4kbits/s speed=0.0127x elapsed=0:05:01.93    \nframe=  232 fps=0.8 q=29.9 size=    1024KiB time=00:00:03.83 bitrate=2188.4kbits/s speed=0.0127x elapsed=0:05:02.44    \nframe=  233 fps=0.8 q=32.6 size=    1024KiB time=00:00:03.85 bitrate=2179.0kbits/s speed=0.0127x elapsed=0:05:02.96    \nframe=  234 fps=0.8 q=32.7 size=    1024KiB time=00:00:03.86 bitrate=2169.6kbits/s speed=0.0127x elapsed=0:05:03.49    \nframe=  234 fps=0.8 q=32.7 size=    1024KiB time=00:00:03.86 bitrate=2169.6kbits/s speed=0.0127x elapsed=0:05:04.01    \nframe=  234 fps=0.8 q=32.7 size=    1024KiB time=00:00:03.86 bitrate=2169.6kbits/s speed=0.0127x elapsed=0:05:04.52    \nframe=  235 fps=0.8 q=26.2 size=    1024KiB time=00:00:03.88 bitrate=2160.2kbits/s speed=0.0127x elapsed=0:05:05.05    \nframe=  235 fps=0.8 q=26.2 size=    1024KiB time=00:00:03.88 bitrate=2160.2kbits/s speed=0.0127x elapsed=0:05:05.57    \nframe=  235 fps=0.8 q=26.2 size=    1024KiB time=00:00:03.88 bitrate=2160.2kbits/s speed=0.0127x elapsed=0:05:06.09    \nframe=  235 fps=0.8 q=26.2 size=    1024KiB time=00:00:03.88 bitrate=2160.2kbits/s speed=0.0127x elapsed=0:05:06.63    \nframe=  236 fps=0.8 q=30.1 size=    1024KiB time=00:00:03.90 bitrate=2151.0kbits/s speed=0.0127x elapsed=0:05:07.17    \nframe=  236 fps=0.8 q=30.1 size=    1024KiB time=00:00:03.90 bitrate=2151.0kbits/s speed=0.0127x elapsed=0:05:07.69    \nframe=  236 fps=0.8 q=30.1 size=    1024KiB time=00:00:03.90 bitrate=2151.0kbits/s speed=0.0127x elapsed=0:05:08.22    \nframe=  238 fps=0.8 q=32.5 size=    1024KiB time=00:00:03.93 bitrate=2132.8kbits/s speed=0.0127x elapsed=0:05:08.75    \nframe=  238 fps=0.8 q=32.5 size=    1024KiB time=00:00:03.93 bitrate=2132.8kbits/s speed=0.0127x elapsed=0:05:09.28    \nframe=  239 fps=0.8 q=26.6 size=    1024KiB time=00:00:03.95 bitrate=2123.8kbits/s speed=0.0128x elapsed=0:05:09.79    \nframe=  239 fps=0.8 q=26.6 size=    1024KiB time=00:00:03.95 bitrate=2123.8kbits/s speed=0.0127x elapsed=0:05:10.31    \nframe=  240 fps=0.8 q=29.7 size=    1024KiB time=00:00:03.96 bitrate=2114.9kbits/s speed=0.0128x elapsed=0:05:10.84    \nframe=  241 fps=0.8 q=32.3 size=    1024KiB time=00:00:03.98 bitrate=2106.0kbits/s speed=0.0128x elapsed=0:05:11.38    \nframe=  241 fps=0.8 q=32.3 size=    1024KiB time=00:00:03.98 bitrate=2106.0kbits/s speed=0.0128x elapsed=0:05:11.91    \nframe=  241 fps=0.8 q=32.3 size=    1024KiB time=00:00:03.98 bitrate=2106.0kbits/s speed=0.0127x elapsed=0:05:12.45    \nframe=  241 fps=0.8 q=32.3 size=    1024KiB time=00:00:03.98 bitrate=2106.0kbits/s speed=0.0127x elapsed=0:05:13.00    \nframe=  241 fps=0.8 q=32.3 size=    1024KiB time=00:00:03.98 bitrate=2106.0kbits/s speed=0.0127x elapsed=0:05:13.57    \nframe=  241 fps=0.8 q=32.3 size=    1024KiB time=00:00:03.98 bitrate=2106.0kbits/s speed=0.0127x elapsed=0:05:14.16    \nframe=  241 fps=0.8 q=32.3 size=    1024KiB time=00:00:03.98 bitrate=2106.0kbits/s speed=0.0127x elapsed=0:05:14.72    \nframe=  241 fps=0.8 q=32.3 size=    1024KiB time=00:00:03.98 bitrate=2106.0kbits/s speed=0.0126x elapsed=0:05:15.23    \nframe=  241 fps=0.8 q=32.3 size=    1024KiB time=00:00:03.98 bitrate=2106.0kbits/s speed=0.0126x elapsed=0:05:15.79    \nframe=  242 fps=0.8 q=32.5 size=    1024KiB time=00:00:04.00 bitrate=2097.2kbits/s speed=0.0126x elapsed=0:05:16.32    \nframe=  242 fps=0.8 q=32.5 size=    1024KiB time=00:00:04.00 bitrate=2097.2kbits/s speed=0.0126x elapsed=0:05:16.90    \nframe=  242 fps=0.8 q=32.5 size=    1024KiB time=00:00:04.00 bitrate=2097.2kbits/s speed=0.0126x elapsed=0:05:17.48    \nframe=  242 fps=0.8 q=32.5 size=    1024KiB time=00:00:04.00 bitrate=2097.2kbits/s speed=0.0126x elapsed=0:05:18.05    \nframe=  243 fps=0.8 q=26.1 size=    1024KiB time=00:00:04.01 bitrate=2088.5kbits/s speed=0.0126x elapsed=0:05:18.60    \nframe=  243 fps=0.8 q=26.1 size=    1024KiB time=00:00:04.01 bitrate=2088.5kbits/s speed=0.0126x elapsed=0:05:19.15    \nframe=  244 fps=0.8 q=29.8 size=    1024KiB time=00:00:04.03 bitrate=2079.9kbits/s speed=0.0126x elapsed=0:05:19.66    \nframe=  244 fps=0.8 q=29.8 size=    1024KiB time=00:00:04.03 bitrate=2079.9kbits/s speed=0.0126x elapsed=0:05:20.17    \nframe=  245 fps=0.8 q=32.5 size=    1024KiB time=00:00:04.05 bitrate=2071.3kbits/s speed=0.0126x elapsed=0:05:20.71    \nframe=  246 fps=0.8 q=32.5 size=    1024KiB time=00:00:04.06 bitrate=2062.9kbits/s speed=0.0127x elapsed=0:05:21.22    \nframe=  246 fps=0.8 q=32.5 size=    1024KiB time=00:00:04.06 bitrate=2062.9kbits/s speed=0.0126x elapsed=0:05:21.74    \nframe=  246 fps=0.8 q=32.5 size=    1024KiB time=00:00:04.06 bitrate=2062.9kbits/s speed=0.0126x elapsed=0:05:22.26    \nframe=  248 fps=0.8 q=29.7 size=    1024KiB time=00:00:04.10 bitrate=2046.1kbits/s speed=0.0127x elapsed=0:05:22.80    \nframe=  248 fps=0.8 q=29.7 size=    1024KiB time=00:00:04.10 bitrate=2046.1kbits/s speed=0.0127x elapsed=0:05:23.32    \nframe=  249 fps=0.8 q=31.9 size=    1024KiB time=00:00:04.11 bitrate=2037.8kbits/s speed=0.0127x elapsed=0:05:23.86    \nframe=  249 fps=0.8 q=31.9 size=    1024KiB time=00:00:04.11 bitrate=2037.8kbits/s speed=0.0127x elapsed=0:05:24.38    \nframe=  250 fps=0.8 q=32.3 size=    1024KiB time=00:00:04.13 bitrate=2029.6kbits/s speed=0.0127x elapsed=0:05:24.93    \nframe=  250 fps=0.8 q=32.3 size=    1024KiB time=00:00:04.13 bitrate=2029.6kbits/s speed=0.0127x elapsed=0:05:25.44    \nframe=  251 fps=0.8 q=23.3 size=    1024KiB time=00:00:04.15 bitrate=2021.4kbits/s speed=0.0127x elapsed=0:05:25.95    \nframe=  251 fps=0.8 q=23.3 size=    1024KiB time=00:00:04.15 bitrate=2021.4kbits/s speed=0.0127x elapsed=0:05:26.47    \nframe=  252 fps=0.8 q=26.0 size=    1280KiB time=00:00:04.16 bitrate=2516.7kbits/s speed=0.0127x elapsed=0:05:27.00    \nframe=  253 fps=0.8 q=29.6 size=    1280KiB time=00:00:04.18 bitrate=2506.6kbits/s speed=0.0128x elapsed=0:05:27.51    \nframe=  254 fps=0.8 q=31.9 size=    1280KiB time=00:00:04.20 bitrate=2496.7kbits/s speed=0.0128x elapsed=0:05:28.03    \nframe=  255 fps=0.8 q=32.0 size=    1280KiB time=00:00:04.21 bitrate=2486.8kbits/s speed=0.0128x elapsed=0:05:28.56    \nframe=  255 fps=0.8 q=32.0 size=    1280KiB time=00:00:04.21 bitrate=2486.8kbits/s speed=0.0128x elapsed=0:05:29.08    \nframe=  256 fps=0.8 q=25.3 size=    1280KiB time=00:00:04.23 bitrate=2477.0kbits/s speed=0.0128x elapsed=0:05:29.59    \nframe=  256 fps=0.8 q=25.3 size=    1280KiB time=00:00:04.23 bitrate=2477.0kbits/s speed=0.0128x elapsed=0:05:30.12    \nframe=  256 fps=0.8 q=25.3 size=    1280KiB time=00:00:04.23 bitrate=2477.0kbits/s speed=0.0128x elapsed=0:05:30.64    \nframe=  257 fps=0.8 q=28.2 size=    1280KiB time=00:00:04.25 bitrate=2467.3kbits/s speed=0.0128x elapsed=0:05:31.16    \nframe=  258 fps=0.8 q=32.0 size=    1280KiB time=00:00:04.26 bitrate=2457.7kbits/s speed=0.0129x elapsed=0:05:31.69    \nframe=  259 fps=0.8 q=32.2 size=    1280KiB time=00:00:04.28 bitrate=2448.1kbits/s speed=0.0129x elapsed=0:05:32.22    \nframe=  260 fps=0.8 q=32.1 size=    1280KiB time=00:00:04.30 bitrate=2438.6kbits/s speed=0.0129x elapsed=0:05:32.74    \nframe=  260 fps=0.8 q=32.1 size=    1280KiB time=00:00:04.30 bitrate=2438.6kbits/s speed=0.0129x elapsed=0:05:33.25    \nframe=  261 fps=0.8 q=25.8 size=    1280KiB time=00:00:04.31 bitrate=2429.2kbits/s speed=0.0129x elapsed=0:05:33.78    \nframe=  263 fps=0.8 q=32.1 size=    1280KiB time=00:00:04.35 bitrate=2410.6kbits/s speed=0.013x elapsed=0:05:34.31    \nframe=  263 fps=0.8 q=32.1 size=    1280KiB time=00:00:04.35 bitrate=2410.6kbits/s speed=0.013x elapsed=0:05:34.84    \nframe=  263 fps=0.8 q=32.1 size=    1280KiB time=00:00:04.35 bitrate=2410.6kbits/s speed=0.013x elapsed=0:05:35.37    \nframe=  265 fps=0.8 q=32.1 size=    1280KiB time=00:00:04.38 bitrate=2392.3kbits/s speed=0.013x elapsed=0:05:35.90    \nframe=  265 fps=0.8 q=32.1 size=    1280KiB time=00:00:04.38 bitrate=2392.3kbits/s speed=0.013x elapsed=0:05:36.47    \nframe=  267 fps=0.8 q=29.7 size=    1280KiB time=00:00:04.41 bitrate=2374.2kbits/s speed=0.0131x elapsed=0:05:36.97    \nframe=  267 fps=0.8 q=29.7 size=    1280KiB time=00:00:04.41 bitrate=2374.2kbits/s speed=0.0131x elapsed=0:05:37.49    \nframe=  267 fps=0.8 q=29.7 size=    1280KiB time=00:00:04.41 bitrate=2374.2kbits/s speed=0.0131x elapsed=0:05:38.01    \nframe=  269 fps=0.8 q=32.3 size=    1280KiB time=00:00:04.45 bitrate=2356.4kbits/s speed=0.0131x elapsed=0:05:38.53    \nframe=  269 fps=0.8 q=32.3 size=    1280KiB time=00:00:04.45 bitrate=2356.4kbits/s speed=0.0131x elapsed=0:05:39.07    \nframe=  269 fps=0.8 q=32.3 size=    1280KiB time=00:00:04.45 bitrate=2356.4kbits/s speed=0.0131x elapsed=0:05:39.58    \nframe=  270 fps=0.8 q=26.8 size=    1280KiB time=00:00:04.46 bitrate=2347.6kbits/s speed=0.0131x elapsed=0:05:40.10    \nframe=  270 fps=0.8 q=26.8 size=    1280KiB time=00:00:04.46 bitrate=2347.6kbits/s speed=0.0131x elapsed=0:05:40.62    \nframe=  270 fps=0.8 q=26.8 size=    1280KiB time=00:00:04.46 bitrate=2347.6kbits/s speed=0.0131x elapsed=0:05:41.15    \nframe=  271 fps=0.8 q=29.4 size=    1280KiB time=00:00:04.48 bitrate=2338.9kbits/s speed=0.0131x elapsed=0:05:41.66    \nframe=  273 fps=0.8 q=31.8 size=    1280KiB time=00:00:04.51 bitrate=2321.6kbits/s speed=0.0132x elapsed=0:05:42.18    \nframe=  273 fps=0.8 q=31.8 size=    1280KiB time=00:00:04.51 bitrate=2321.6kbits/s speed=0.0132x elapsed=0:05:42.70    \nframe=  273 fps=0.8 q=31.8 size=    1280KiB time=00:00:04.51 bitrate=2321.6kbits/s speed=0.0132x elapsed=0:05:43.22    \nframe=  273 fps=0.8 q=31.8 size=    1280KiB time=00:00:04.51 bitrate=2321.6kbits/s speed=0.0131x elapsed=0:05:43.74    \nframe=  275 fps=0.8 q=26.3 size=    1280KiB time=00:00:04.55 bitrate=2304.6kbits/s speed=0.0132x elapsed=0:05:44.27    \nframe=  275 fps=0.8 q=26.3 size=    1280KiB time=00:00:04.55 bitrate=2304.6kbits/s speed=0.0132x elapsed=0:05:44.81    \nframe=  276 fps=0.8 q=29.6 size=    1280KiB time=00:00:04.56 bitrate=2296.2kbits/s speed=0.0132x elapsed=0:05:45.34    \nframe=  277 fps=0.8 q=32.8 size=    1280KiB time=00:00:04.58 bitrate=2287.9kbits/s speed=0.0133x elapsed=0:05:45.85    \nframe=  278 fps=0.8 q=32.4 size=    1280KiB time=00:00:04.60 bitrate=2279.6kbits/s speed=0.0133x elapsed=0:05:46.38    \nframe=  278 fps=0.8 q=32.4 size=    1280KiB time=00:00:04.60 bitrate=2279.6kbits/s speed=0.0133x elapsed=0:05:46.89    \nframe=  279 fps=0.8 q=26.2 size=    1280KiB time=00:00:04.61 bitrate=2271.4kbits/s speed=0.0133x elapsed=0:05:47.41    \nframe=  279 fps=0.8 q=26.2 size=    1280KiB time=00:00:04.61 bitrate=2271.4kbits/s speed=0.0133x elapsed=0:05:47.93    \nframe=  279 fps=0.8 q=26.2 size=    1280KiB time=00:00:04.61 bitrate=2271.4kbits/s speed=0.0132x elapsed=0:05:48.44    \nframe=  280 fps=0.8 q=29.6 size=    1280KiB time=00:00:04.63 bitrate=2263.2kbits/s speed=0.0133x elapsed=0:05:48.95    \nframe=  280 fps=0.8 q=29.6 size=    1280KiB time=00:00:04.63 bitrate=2263.2kbits/s speed=0.0133x elapsed=0:05:49.50    \nframe=  280 fps=0.8 q=29.6 size=    1280KiB time=00:00:04.63 bitrate=2263.2kbits/s speed=0.0132x elapsed=0:05:50.04    \nframe=  281 fps=0.8 q=31.6 size=    1280KiB time=00:00:04.65 bitrate=2255.1kbits/s speed=0.0133x elapsed=0:05:50.58    \nframe=  282 fps=0.8 q=31.8 size=    1280KiB time=00:00:04.66 bitrate=2247.0kbits/s speed=0.0133x elapsed=0:05:51.13    \nframe=  282 fps=0.8 q=31.8 size=    1280KiB time=00:00:04.66 bitrate=2247.0kbits/s speed=0.0133x elapsed=0:05:51.65    \nframe=  283 fps=0.8 q=31.5 size=    1280KiB time=00:00:04.68 bitrate=2239.0kbits/s speed=0.0133x elapsed=0:05:52.18    \nframe=  283 fps=0.8 q=31.5 size=    1280KiB time=00:00:04.68 bitrate=2239.0kbits/s speed=0.0133x elapsed=0:05:52.72    \nframe=  283 fps=0.8 q=31.5 size=    1280KiB time=00:00:04.68 bitrate=2239.0kbits/s speed=0.0133x elapsed=0:05:53.25    \nframe=  283 fps=0.8 q=31.5 size=    1280KiB time=00:00:04.68 bitrate=2239.0kbits/s speed=0.0132x elapsed=0:05:53.80    \nframe=  284 fps=0.8 q=26.2 size=    1280KiB time=00:00:04.70 bitrate=2231.1kbits/s speed=0.0133x elapsed=0:05:54.36    \nframe=  284 fps=0.8 q=26.2 size=    1280KiB time=00:00:04.70 bitrate=2231.1kbits/s speed=0.0132x elapsed=0:05:54.90    \nframe=  285 fps=0.8 q=29.8 size=    1280KiB time=00:00:04.71 bitrate=2223.2kbits/s speed=0.0133x elapsed=0:05:55.44    \nframe=  285 fps=0.8 q=29.8 size=    1280KiB time=00:00:04.71 bitrate=2223.2kbits/s speed=0.0133x elapsed=0:05:55.96    \nframe=  286 fps=0.8 q=32.1 size=    1280KiB time=00:00:04.73 bitrate=2215.4kbits/s speed=0.0133x elapsed=0:05:56.48    \nframe=  286 fps=0.8 q=32.1 size=    1280KiB time=00:00:04.73 bitrate=2215.4kbits/s speed=0.0133x elapsed=0:05:57.01    \nframe=  287 fps=0.8 q=32.3 size=    1280KiB time=00:00:04.75 bitrate=2207.6kbits/s speed=0.0133x elapsed=0:05:57.55    \nframe=  287 fps=0.8 q=32.3 size=    1280KiB time=00:00:04.75 bitrate=2207.6kbits/s speed=0.0133x elapsed=0:05:58.08    \nframe=  288 fps=0.8 q=26.5 size=    1280KiB time=00:00:04.76 bitrate=2199.9kbits/s speed=0.0133x elapsed=0:05:58.61    \nframe=  288 fps=0.8 q=26.5 size=    1280KiB time=00:00:04.76 bitrate=2199.9kbits/s speed=0.0133x elapsed=0:05:59.13    \nframe=  288 fps=0.8 q=26.5 size=    1280KiB time=00:00:04.76 bitrate=2199.9kbits/s speed=0.0133x elapsed=0:05:59.66    \nframe=  288 fps=0.8 q=26.5 size=    1280KiB time=00:00:04.76 bitrate=2199.9kbits/s speed=0.0132x elapsed=0:06:00.17    \nframe=  289 fps=0.8 q=29.6 size=    1280KiB time=00:00:04.78 bitrate=2192.2kbits/s speed=0.0133x elapsed=0:06:00.69    \nframe=  290 fps=0.8 q=31.7 size=    1280KiB time=00:00:04.80 bitrate=2184.6kbits/s speed=0.0133x elapsed=0:06:01.21    \nframe=  290 fps=0.8 q=31.7 size=    1280KiB time=00:00:04.80 bitrate=2184.6kbits/s speed=0.0133x elapsed=0:06:01.72    \nframe=  291 fps=0.8 q=31.7 size=    1536KiB time=00:00:04.81 bitrate=2612.4kbits/s speed=0.0133x elapsed=0:06:02.24    \nframe=  291 fps=0.8 q=31.7 size=    1536KiB time=00:00:04.81 bitrate=2612.4kbits/s speed=0.0133x elapsed=0:06:02.76    \nframe=  292 fps=0.8 q=31.8 size=    1536KiB time=00:00:04.83 bitrate=2603.4kbits/s speed=0.0133x elapsed=0:06:03.28    \nframe=  292 fps=0.8 q=31.8 size=    1536KiB time=00:00:04.83 bitrate=2603.4kbits/s speed=0.0133x elapsed=0:06:03.79    \nframe=  293 fps=0.8 q=26.6 size=    1536KiB time=00:00:04.85 bitrate=2594.5kbits/s speed=0.0133x elapsed=0:06:04.33    \nframe=  294 fps=0.8 q=29.6 size=    1536KiB time=00:00:04.86 bitrate=2585.6kbits/s speed=0.0133x elapsed=0:06:04.85    \nframe=  294 fps=0.8 q=29.6 size=    1536KiB time=00:00:04.86 bitrate=2585.6kbits/s speed=0.0133x elapsed=0:06:05.37    \nframe=  295 fps=0.8 q=32.6 size=    1536KiB time=00:00:04.88 bitrate=2576.8kbits/s speed=0.0133x elapsed=0:06:05.89    \nframe=  295 fps=0.8 q=32.6 size=    1536KiB time=00:00:04.88 bitrate=2576.8kbits/s speed=0.0133x elapsed=0:06:06.41    \nframe=  296 fps=0.8 q=32.5 size=    1536KiB time=00:00:04.90 bitrate=2568.0kbits/s speed=0.0134x elapsed=0:06:06.94    \nframe=  297 fps=0.8 q=29.1 size=    1536KiB time=00:00:04.91 bitrate=2559.3kbits/s speed=0.0134x elapsed=0:06:07.45    \nframe=  297 fps=0.8 q=29.1 size=    1536KiB time=00:00:04.91 bitrate=2559.3kbits/s speed=0.0134x elapsed=0:06:07.99    \nframe=  298 fps=0.8 q=29.7 size=    1536KiB time=00:00:04.93 bitrate=2550.7kbits/s speed=0.0134x elapsed=0:06:08.50    \n[mp4 @ 000001ead1661200] Starting second pass: moving the moov atom to the beginning of the file\n[out#0/mp4 @ 000001ead165abc0] video:1586KiB audio:0KiB subtitle:0KiB other streams:0KiB global headers:2KiB muxing overhead: 0.433674%\nframe=  300 fps=0.8 q=32.4 Lsize=    1593KiB time=00:00:04.96 bitrate=2626.9kbits/s speed=0.0135x elapsed=0:06:08.75    \nx265 [info]: frame I:      2, Avg QP:29.10  kb/s: 8482.56 \nx265 [info]: frame P:     67, Avg QP:25.79  kb/s: 6197.85 \nx265 [info]: frame B:    231, Avg QP:30.89  kb/s: 1500.55 \nx265 [info]: Weighted P-Frames: Y:0.0% UV:0.0%\n\nencoded 300 frames in 368.38s (0.81 fps), 2596.16 kb/s, Avg QP:29.74\n",
  "seconds": 369.0205593109131,
  "probe_out": {}
}